<mxfile host="app.diagrams.net" modified="2022-10-28T08:45:21.076Z" agent="5.0 (Windows NT 10.0; Win64; x64) AppleWebKit/537.36 (KHTML, like Gecko) Chrome/107.0.0.0 Safari/537.36" etag="hXHOuPtAvDzMLPbkAktj" version="20.5.0" type="github" pages="2">
  <diagram name="Monolithique" id="929967ad-93f9-6ef4-fab6-5d389245f69c">
    <mxGraphModel dx="1490" dy="723" grid="1" gridSize="10" guides="1" tooltips="1" connect="1" arrows="1" fold="1" page="1" pageScale="1.5" pageWidth="1169" pageHeight="826" background="none" math="0" shadow="0">
      <root>
        <mxCell id="0" style=";html=1;" />
        <mxCell id="1" style=";html=1;" parent="0" />
        <mxCell id="1672d66443f91eb5-1" value="&lt;p style=&quot;margin: 0px ; margin-top: 4px ; margin-left: 10px ; text-align: left&quot;&gt;&lt;b&gt;App Monolithique&lt;/b&gt;&lt;/p&gt;&lt;p style=&quot;margin: 0px ; margin-top: 4px ; margin-left: 10px ; text-align: left&quot;&gt;&lt;b&gt;&lt;br&gt;&lt;/b&gt;&lt;/p&gt;" style="html=1;strokeWidth=1;shape=mxgraph.sysml.package;html=1;overflow=fill;whiteSpace=wrap;fillColor=none;gradientColor=none;fontSize=12;align=center;labelX=327.64;" parent="1" vertex="1">
          <mxGeometry x="320" y="295" width="800" height="650" as="geometry" />
        </mxCell>
        <mxCell id="1672d66443f91eb5-23" value="Title" style="text;strokeColor=none;fillColor=none;html=1;fontSize=9;fontStyle=1;verticalAlign=middle;align=center;" parent="1" vertex="1">
          <mxGeometry x="120" y="40" width="1510" height="40" as="geometry" />
        </mxCell>
        <mxCell id="JK57Fo3C8qKhbCxJsB5z-45" style="edgeStyle=orthogonalEdgeStyle;rounded=0;orthogonalLoop=1;jettySize=auto;html=1;exitX=1;exitY=0.5;exitDx=0;exitDy=0;entryX=0;entryY=0.5;entryDx=0;entryDy=0;fontSize=9;" parent="1" source="JK57Fo3C8qKhbCxJsB5z-1" target="JK57Fo3C8qKhbCxJsB5z-2" edge="1">
          <mxGeometry relative="1" as="geometry" />
        </mxCell>
        <mxCell id="JK57Fo3C8qKhbCxJsB5z-46" style="edgeStyle=orthogonalEdgeStyle;rounded=0;orthogonalLoop=1;jettySize=auto;html=1;exitX=1;exitY=0.5;exitDx=0;exitDy=0;entryX=0;entryY=0.5;entryDx=0;entryDy=0;fontSize=9;" parent="1" source="JK57Fo3C8qKhbCxJsB5z-1" target="JK57Fo3C8qKhbCxJsB5z-7" edge="1">
          <mxGeometry relative="1" as="geometry" />
        </mxCell>
        <mxCell id="JK57Fo3C8qKhbCxJsB5z-47" style="edgeStyle=orthogonalEdgeStyle;rounded=0;orthogonalLoop=1;jettySize=auto;html=1;exitX=1;exitY=0.5;exitDx=0;exitDy=0;entryX=0;entryY=0.5;entryDx=0;entryDy=0;fontSize=9;" parent="1" source="JK57Fo3C8qKhbCxJsB5z-1" target="JK57Fo3C8qKhbCxJsB5z-28" edge="1">
          <mxGeometry relative="1" as="geometry" />
        </mxCell>
        <mxCell id="JK57Fo3C8qKhbCxJsB5z-1" value="Redirect Controller" style="html=1;fontSize=9;" parent="1" vertex="1">
          <mxGeometry x="340" y="595" width="110" height="50" as="geometry" />
        </mxCell>
        <mxCell id="JK57Fo3C8qKhbCxJsB5z-39" style="edgeStyle=orthogonalEdgeStyle;rounded=0;orthogonalLoop=1;jettySize=auto;html=1;exitX=0.5;exitY=1;exitDx=0;exitDy=0;entryX=0.5;entryY=0;entryDx=0;entryDy=0;fontSize=9;" parent="1" source="JK57Fo3C8qKhbCxJsB5z-2" target="JK57Fo3C8qKhbCxJsB5z-32" edge="1">
          <mxGeometry relative="1" as="geometry" />
        </mxCell>
        <mxCell id="JK57Fo3C8qKhbCxJsB5z-40" style="edgeStyle=orthogonalEdgeStyle;rounded=0;orthogonalLoop=1;jettySize=auto;html=1;exitX=0.5;exitY=1;exitDx=0;exitDy=0;entryX=0.5;entryY=0;entryDx=0;entryDy=0;fontSize=9;" parent="1" source="JK57Fo3C8qKhbCxJsB5z-2" target="JK57Fo3C8qKhbCxJsB5z-33" edge="1">
          <mxGeometry relative="1" as="geometry">
            <Array as="points">
              <mxPoint x="545" y="400" />
              <mxPoint x="695" y="400" />
            </Array>
          </mxGeometry>
        </mxCell>
        <mxCell id="JK57Fo3C8qKhbCxJsB5z-41" style="edgeStyle=orthogonalEdgeStyle;rounded=0;orthogonalLoop=1;jettySize=auto;html=1;exitX=1;exitY=0.5;exitDx=0;exitDy=0;entryX=0;entryY=0.5;entryDx=0;entryDy=0;fontSize=9;" parent="1" source="JK57Fo3C8qKhbCxJsB5z-2" target="JK57Fo3C8qKhbCxJsB5z-3" edge="1">
          <mxGeometry relative="1" as="geometry" />
        </mxCell>
        <mxCell id="JK57Fo3C8qKhbCxJsB5z-2" value="User Rest Controller" style="html=1;fontSize=9;" parent="1" vertex="1">
          <mxGeometry x="490" y="340" width="110" height="50" as="geometry" />
        </mxCell>
        <mxCell id="JK57Fo3C8qKhbCxJsB5z-42" style="edgeStyle=orthogonalEdgeStyle;rounded=0;orthogonalLoop=1;jettySize=auto;html=1;exitX=1;exitY=0.5;exitDx=0;exitDy=0;entryX=0;entryY=0.5;entryDx=0;entryDy=0;fontSize=9;" parent="1" source="JK57Fo3C8qKhbCxJsB5z-3" target="JK57Fo3C8qKhbCxJsB5z-4" edge="1">
          <mxGeometry relative="1" as="geometry" />
        </mxCell>
        <mxCell id="JK57Fo3C8qKhbCxJsB5z-64" style="edgeStyle=orthogonalEdgeStyle;rounded=0;orthogonalLoop=1;jettySize=auto;html=1;exitX=0.5;exitY=0;exitDx=0;exitDy=0;entryX=0.5;entryY=0;entryDx=0;entryDy=0;fontSize=9;" parent="1" source="JK57Fo3C8qKhbCxJsB5z-3" target="JK57Fo3C8qKhbCxJsB5z-5" edge="1">
          <mxGeometry relative="1" as="geometry" />
        </mxCell>
        <mxCell id="JK57Fo3C8qKhbCxJsB5z-67" style="edgeStyle=orthogonalEdgeStyle;rounded=0;orthogonalLoop=1;jettySize=auto;html=1;exitX=0.5;exitY=0;exitDx=0;exitDy=0;fontSize=9;" parent="1" source="JK57Fo3C8qKhbCxJsB5z-3" target="JK57Fo3C8qKhbCxJsB5z-14" edge="1">
          <mxGeometry relative="1" as="geometry">
            <Array as="points">
              <mxPoint x="695" y="320" />
              <mxPoint x="1080" y="320" />
              <mxPoint x="1080" y="665" />
            </Array>
          </mxGeometry>
        </mxCell>
        <mxCell id="JK57Fo3C8qKhbCxJsB5z-68" style="edgeStyle=orthogonalEdgeStyle;rounded=0;orthogonalLoop=1;jettySize=auto;html=1;exitX=0.5;exitY=0;exitDx=0;exitDy=0;fontSize=9;" parent="1" source="JK57Fo3C8qKhbCxJsB5z-3" target="JK57Fo3C8qKhbCxJsB5z-29" edge="1">
          <mxGeometry relative="1" as="geometry">
            <Array as="points">
              <mxPoint x="695" y="320" />
              <mxPoint x="1080" y="320" />
              <mxPoint x="1080" y="600" />
              <mxPoint x="695" y="600" />
            </Array>
          </mxGeometry>
        </mxCell>
        <mxCell id="JK57Fo3C8qKhbCxJsB5z-3" value="User Service" style="html=1;fontSize=9;" parent="1" vertex="1">
          <mxGeometry x="640" y="340" width="110" height="50" as="geometry" />
        </mxCell>
        <mxCell id="JK57Fo3C8qKhbCxJsB5z-43" style="edgeStyle=orthogonalEdgeStyle;rounded=0;orthogonalLoop=1;jettySize=auto;html=1;exitX=1;exitY=0.5;exitDx=0;exitDy=0;fontSize=9;" parent="1" source="JK57Fo3C8qKhbCxJsB5z-4" target="JK57Fo3C8qKhbCxJsB5z-5" edge="1">
          <mxGeometry relative="1" as="geometry" />
        </mxCell>
        <mxCell id="JK57Fo3C8qKhbCxJsB5z-4" value="User&amp;nbsp; Repository" style="html=1;fontSize=9;" parent="1" vertex="1">
          <mxGeometry x="790" y="340" width="110" height="50" as="geometry" />
        </mxCell>
        <mxCell id="JK57Fo3C8qKhbCxJsB5z-5" value="User Model" style="html=1;fontSize=9;" parent="1" vertex="1">
          <mxGeometry x="940" y="340" width="110" height="50" as="geometry" />
        </mxCell>
        <mxCell id="JK57Fo3C8qKhbCxJsB5z-37" style="edgeStyle=orthogonalEdgeStyle;rounded=0;orthogonalLoop=1;jettySize=auto;html=1;exitX=1;exitY=0.5;exitDx=0;exitDy=0;fontSize=9;" parent="1" source="JK57Fo3C8qKhbCxJsB5z-7" target="JK57Fo3C8qKhbCxJsB5z-8" edge="1">
          <mxGeometry relative="1" as="geometry" />
        </mxCell>
        <mxCell id="JK57Fo3C8qKhbCxJsB5z-65" style="edgeStyle=orthogonalEdgeStyle;rounded=0;orthogonalLoop=1;jettySize=auto;html=1;exitX=0.5;exitY=1;exitDx=0;exitDy=0;entryX=0.5;entryY=0;entryDx=0;entryDy=0;fontSize=9;" parent="1" source="JK57Fo3C8qKhbCxJsB5z-7" target="JK57Fo3C8qKhbCxJsB5z-31" edge="1">
          <mxGeometry relative="1" as="geometry" />
        </mxCell>
        <mxCell id="JK57Fo3C8qKhbCxJsB5z-7" value="Store Rest Controller" style="html=1;fontSize=9;" parent="1" vertex="1">
          <mxGeometry x="490" y="480" width="110" height="50" as="geometry" />
        </mxCell>
        <mxCell id="JK57Fo3C8qKhbCxJsB5z-34" style="edgeStyle=orthogonalEdgeStyle;rounded=0;orthogonalLoop=1;jettySize=auto;html=1;exitX=1;exitY=0.5;exitDx=0;exitDy=0;entryX=0;entryY=0.5;entryDx=0;entryDy=0;fontSize=9;" parent="1" source="JK57Fo3C8qKhbCxJsB5z-8" target="JK57Fo3C8qKhbCxJsB5z-9" edge="1">
          <mxGeometry relative="1" as="geometry" />
        </mxCell>
        <mxCell id="JK57Fo3C8qKhbCxJsB5z-35" style="edgeStyle=orthogonalEdgeStyle;rounded=0;orthogonalLoop=1;jettySize=auto;html=1;exitX=1;exitY=0.5;exitDx=0;exitDy=0;entryX=0;entryY=0.5;entryDx=0;entryDy=0;fontSize=9;" parent="1" source="JK57Fo3C8qKhbCxJsB5z-8" target="JK57Fo3C8qKhbCxJsB5z-10" edge="1">
          <mxGeometry relative="1" as="geometry" />
        </mxCell>
        <mxCell id="JK57Fo3C8qKhbCxJsB5z-36" style="edgeStyle=orthogonalEdgeStyle;rounded=0;orthogonalLoop=1;jettySize=auto;html=1;exitX=1;exitY=0.5;exitDx=0;exitDy=0;entryX=0;entryY=0.5;entryDx=0;entryDy=0;fontSize=9;" parent="1" source="JK57Fo3C8qKhbCxJsB5z-8" target="JK57Fo3C8qKhbCxJsB5z-18" edge="1">
          <mxGeometry relative="1" as="geometry" />
        </mxCell>
        <mxCell id="JK57Fo3C8qKhbCxJsB5z-8" value="Store Service" style="html=1;fontSize=9;" parent="1" vertex="1">
          <mxGeometry x="640" y="480" width="110" height="50" as="geometry" />
        </mxCell>
        <mxCell id="JK57Fo3C8qKhbCxJsB5z-9" value="Store&amp;nbsp; Repository" style="html=1;fontSize=9;" parent="1" vertex="1">
          <mxGeometry x="790" y="410" width="110" height="50" as="geometry" />
        </mxCell>
        <mxCell id="JK57Fo3C8qKhbCxJsB5z-10" value="Store Transaction" style="html=1;fontSize=9;" parent="1" vertex="1">
          <mxGeometry x="940" y="450" width="110" height="50" as="geometry" />
        </mxCell>
        <mxCell id="JK57Fo3C8qKhbCxJsB5z-50" style="edgeStyle=orthogonalEdgeStyle;rounded=0;orthogonalLoop=1;jettySize=auto;html=1;exitX=1;exitY=0.5;exitDx=0;exitDy=0;entryX=0;entryY=0.5;entryDx=0;entryDy=0;fontSize=9;" parent="1" source="JK57Fo3C8qKhbCxJsB5z-13" target="JK57Fo3C8qKhbCxJsB5z-14" edge="1">
          <mxGeometry relative="1" as="geometry" />
        </mxCell>
        <mxCell id="JK57Fo3C8qKhbCxJsB5z-51" style="edgeStyle=orthogonalEdgeStyle;rounded=0;orthogonalLoop=1;jettySize=auto;html=1;exitX=0.5;exitY=1;exitDx=0;exitDy=0;fontSize=9;" parent="1" source="JK57Fo3C8qKhbCxJsB5z-13" target="JK57Fo3C8qKhbCxJsB5z-16" edge="1">
          <mxGeometry relative="1" as="geometry" />
        </mxCell>
        <mxCell id="JK57Fo3C8qKhbCxJsB5z-13" value="Card Model Repository" style="html=1;fontSize=9;" parent="1" vertex="1">
          <mxGeometry x="790" y="640" width="110" height="50" as="geometry" />
        </mxCell>
        <mxCell id="JK57Fo3C8qKhbCxJsB5z-69" style="edgeStyle=orthogonalEdgeStyle;rounded=0;orthogonalLoop=1;jettySize=auto;html=1;exitX=0.5;exitY=1;exitDx=0;exitDy=0;entryX=0.5;entryY=1;entryDx=0;entryDy=0;fontSize=9;" parent="1" source="JK57Fo3C8qKhbCxJsB5z-14" target="JK57Fo3C8qKhbCxJsB5z-19" edge="1">
          <mxGeometry relative="1" as="geometry" />
        </mxCell>
        <mxCell id="JK57Fo3C8qKhbCxJsB5z-14" value="Card Model" style="html=1;fontSize=9;" parent="1" vertex="1">
          <mxGeometry x="940" y="640" width="110" height="50" as="geometry" />
        </mxCell>
        <mxCell id="JK57Fo3C8qKhbCxJsB5z-63" style="edgeStyle=orthogonalEdgeStyle;rounded=0;orthogonalLoop=1;jettySize=auto;html=1;exitX=0.5;exitY=1;exitDx=0;exitDy=0;entryX=0.5;entryY=0;entryDx=0;entryDy=0;fontSize=9;" parent="1" source="JK57Fo3C8qKhbCxJsB5z-16" target="JK57Fo3C8qKhbCxJsB5z-58" edge="1">
          <mxGeometry relative="1" as="geometry" />
        </mxCell>
        <mxCell id="JK57Fo3C8qKhbCxJsB5z-74" style="edgeStyle=orthogonalEdgeStyle;rounded=0;orthogonalLoop=1;jettySize=auto;html=1;exitX=1;exitY=0.5;exitDx=0;exitDy=0;entryX=0.5;entryY=1;entryDx=0;entryDy=0;fontSize=9;" parent="1" source="JK57Fo3C8qKhbCxJsB5z-16" target="JK57Fo3C8qKhbCxJsB5z-19" edge="1">
          <mxGeometry relative="1" as="geometry">
            <Array as="points">
              <mxPoint x="940" y="745" />
              <mxPoint x="940" y="910" />
              <mxPoint x="695" y="910" />
            </Array>
          </mxGeometry>
        </mxCell>
        <mxCell id="JK57Fo3C8qKhbCxJsB5z-16" value="Card Reference" style="html=1;fontSize=9;" parent="1" vertex="1">
          <mxGeometry x="790" y="720" width="110" height="50" as="geometry" />
        </mxCell>
        <mxCell id="JK57Fo3C8qKhbCxJsB5z-18" value="Store Action" style="html=1;fontSize=9;" parent="1" vertex="1">
          <mxGeometry x="940" y="530" width="110" height="50" as="geometry" />
        </mxCell>
        <mxCell id="JK57Fo3C8qKhbCxJsB5z-19" value="Card Basic" style="html=1;fontSize=9;" parent="1" vertex="1">
          <mxGeometry x="640" y="840" width="110" height="50" as="geometry" />
        </mxCell>
        <mxCell id="JK57Fo3C8qKhbCxJsB5z-48" style="edgeStyle=orthogonalEdgeStyle;rounded=0;orthogonalLoop=1;jettySize=auto;html=1;exitX=1;exitY=0.5;exitDx=0;exitDy=0;entryX=0;entryY=0.5;entryDx=0;entryDy=0;fontSize=9;" parent="1" source="JK57Fo3C8qKhbCxJsB5z-28" target="JK57Fo3C8qKhbCxJsB5z-29" edge="1">
          <mxGeometry relative="1" as="geometry" />
        </mxCell>
        <mxCell id="JK57Fo3C8qKhbCxJsB5z-56" style="edgeStyle=orthogonalEdgeStyle;rounded=0;orthogonalLoop=1;jettySize=auto;html=1;exitX=0.5;exitY=1;exitDx=0;exitDy=0;entryX=0.5;entryY=0;entryDx=0;entryDy=0;fontSize=9;" parent="1" source="JK57Fo3C8qKhbCxJsB5z-28" target="JK57Fo3C8qKhbCxJsB5z-55" edge="1">
          <mxGeometry relative="1" as="geometry" />
        </mxCell>
        <mxCell id="JK57Fo3C8qKhbCxJsB5z-28" value="Card Rest Controller" style="html=1;fontSize=9;" parent="1" vertex="1">
          <mxGeometry x="490" y="640" width="110" height="50" as="geometry" />
        </mxCell>
        <mxCell id="JK57Fo3C8qKhbCxJsB5z-49" style="edgeStyle=orthogonalEdgeStyle;rounded=0;orthogonalLoop=1;jettySize=auto;html=1;exitX=1;exitY=0.5;exitDx=0;exitDy=0;entryX=0;entryY=0.5;entryDx=0;entryDy=0;fontSize=9;" parent="1" source="JK57Fo3C8qKhbCxJsB5z-29" target="JK57Fo3C8qKhbCxJsB5z-13" edge="1">
          <mxGeometry relative="1" as="geometry" />
        </mxCell>
        <mxCell id="JK57Fo3C8qKhbCxJsB5z-52" style="edgeStyle=orthogonalEdgeStyle;rounded=0;orthogonalLoop=1;jettySize=auto;html=1;exitX=0.5;exitY=1;exitDx=0;exitDy=0;entryX=0.5;entryY=0;entryDx=0;entryDy=0;fontSize=9;" parent="1" source="JK57Fo3C8qKhbCxJsB5z-29" target="JK57Fo3C8qKhbCxJsB5z-30" edge="1">
          <mxGeometry relative="1" as="geometry" />
        </mxCell>
        <mxCell id="JK57Fo3C8qKhbCxJsB5z-29" value="Card Model Service" style="html=1;fontSize=9;" parent="1" vertex="1">
          <mxGeometry x="640" y="640" width="110" height="50" as="geometry" />
        </mxCell>
        <mxCell id="JK57Fo3C8qKhbCxJsB5z-71" style="edgeStyle=orthogonalEdgeStyle;rounded=0;orthogonalLoop=1;jettySize=auto;html=1;exitX=1;exitY=0.5;exitDx=0;exitDy=0;entryX=0;entryY=0.5;entryDx=0;entryDy=0;fontSize=9;" parent="1" source="JK57Fo3C8qKhbCxJsB5z-30" target="JK57Fo3C8qKhbCxJsB5z-16" edge="1">
          <mxGeometry relative="1" as="geometry" />
        </mxCell>
        <mxCell id="JK57Fo3C8qKhbCxJsB5z-73" style="edgeStyle=orthogonalEdgeStyle;rounded=0;orthogonalLoop=1;jettySize=auto;html=1;exitX=0.5;exitY=1;exitDx=0;exitDy=0;entryX=0;entryY=0.5;entryDx=0;entryDy=0;fontSize=9;" parent="1" source="JK57Fo3C8qKhbCxJsB5z-30" target="JK57Fo3C8qKhbCxJsB5z-58" edge="1">
          <mxGeometry relative="1" as="geometry">
            <Array as="points">
              <mxPoint x="695" y="810" />
              <mxPoint x="770" y="810" />
              <mxPoint x="770" y="865" />
            </Array>
          </mxGeometry>
        </mxCell>
        <mxCell id="JK57Fo3C8qKhbCxJsB5z-30" value="Card Reference Service" style="html=1;fontSize=9;" parent="1" vertex="1">
          <mxGeometry x="640" y="720" width="110" height="50" as="geometry" />
        </mxCell>
        <mxCell id="JK57Fo3C8qKhbCxJsB5z-31" value="Store Order" style="html=1;fontSize=9;" parent="1" vertex="1">
          <mxGeometry x="490" y="550" width="110" height="50" as="geometry" />
        </mxCell>
        <mxCell id="JK57Fo3C8qKhbCxJsB5z-32" value="Auth DTO" style="html=1;fontSize=9;" parent="1" vertex="1">
          <mxGeometry x="490" y="410" width="110" height="50" as="geometry" />
        </mxCell>
        <mxCell id="JK57Fo3C8qKhbCxJsB5z-33" value="User DTO" style="html=1;fontSize=9;" parent="1" vertex="1">
          <mxGeometry x="640" y="410" width="110" height="50" as="geometry" />
        </mxCell>
        <mxCell id="JK57Fo3C8qKhbCxJsB5z-72" style="edgeStyle=orthogonalEdgeStyle;rounded=0;orthogonalLoop=1;jettySize=auto;html=1;exitX=0.5;exitY=1;exitDx=0;exitDy=0;entryX=0;entryY=0.5;entryDx=0;entryDy=0;fontSize=9;" parent="1" source="JK57Fo3C8qKhbCxJsB5z-55" target="JK57Fo3C8qKhbCxJsB5z-19" edge="1">
          <mxGeometry relative="1" as="geometry" />
        </mxCell>
        <mxCell id="JK57Fo3C8qKhbCxJsB5z-55" value="Card DTO" style="html=1;fontSize=9;" parent="1" vertex="1">
          <mxGeometry x="490" y="720" width="110" height="50" as="geometry" />
        </mxCell>
        <mxCell id="JK57Fo3C8qKhbCxJsB5z-58" value="Card Reference Repository" style="html=1;fontSize=9;" parent="1" vertex="1">
          <mxGeometry x="790" y="840" width="110" height="50" as="geometry" />
        </mxCell>
      </root>
    </mxGraphModel>
  </diagram>
  <diagram id="BGc2Cv2USlWMcoOx3FPN" name="Micro-services">
    <mxGraphModel dx="3550" dy="2489" grid="1" gridSize="10" guides="1" tooltips="1" connect="1" arrows="1" fold="1" page="1" pageScale="1" pageWidth="827" pageHeight="1169" math="0" shadow="0">
      <root>
        <mxCell id="0" />
        <mxCell id="1" parent="0" />
        <mxCell id="blbhUG7mqCCAgmnZta2w-1" value="&lt;p style=&quot;margin: 0px ; margin-top: 4px ; margin-left: 10px ; text-align: left&quot;&gt;&lt;b&gt;App Micro-Services&lt;/b&gt;&lt;/p&gt;&lt;p style=&quot;margin: 0px ; margin-top: 4px ; margin-left: 10px ; text-align: left&quot;&gt;&lt;b&gt;&lt;br&gt;&lt;/b&gt;&lt;/p&gt;" style="html=1;strokeWidth=1;shape=mxgraph.sysml.package;html=1;overflow=fill;whiteSpace=wrap;fontSize=12;align=center;labelX=327.64;fillColor=none;" vertex="1" parent="1">
          <mxGeometry x="-640" y="-1120" width="1747" height="1491" as="geometry" />
        </mxCell>
        <mxCell id="blbhUG7mqCCAgmnZta2w-8" value="" style="rounded=0;whiteSpace=wrap;html=1;fillColor=default;" vertex="1" parent="1">
          <mxGeometry x="-223" y="81" width="488" height="264" as="geometry" />
        </mxCell>
        <mxCell id="FJe9rlemv6NJPmRcLRrQ-1" value="" style="rounded=0;whiteSpace=wrap;html=1;fillColor=default;" vertex="1" parent="1">
          <mxGeometry x="302" y="-1086" width="528" height="264" as="geometry" />
        </mxCell>
        <mxCell id="blbhUG7mqCCAgmnZta2w-13" style="edgeStyle=orthogonalEdgeStyle;rounded=0;orthogonalLoop=1;jettySize=auto;html=1;exitX=1;exitY=0.75;exitDx=0;exitDy=0;entryX=0;entryY=0.5;entryDx=0;entryDy=0;fontSize=9;startArrow=classic;startFill=1;" edge="1" parent="1" source="FJe9rlemv6NJPmRcLRrQ-2" target="blbhUG7mqCCAgmnZta2w-10">
          <mxGeometry relative="1" as="geometry">
            <Array as="points">
              <mxPoint x="-310" y="-450" />
              <mxPoint x="-310" y="250" />
            </Array>
          </mxGeometry>
        </mxCell>
        <mxCell id="FJe9rlemv6NJPmRcLRrQ-2" value="Reverse Proxy" style="rounded=0;whiteSpace=wrap;html=1;" vertex="1" parent="1">
          <mxGeometry x="-560" y="-539" width="120" height="119" as="geometry" />
        </mxCell>
        <mxCell id="FJe9rlemv6NJPmRcLRrQ-3" value="" style="strokeWidth=2;html=1;shape=mxgraph.flowchart.database;whiteSpace=wrap;" vertex="1" parent="1">
          <mxGeometry x="329" y="-982" width="60" height="60" as="geometry" />
        </mxCell>
        <mxCell id="FJe9rlemv6NJPmRcLRrQ-4" value="" style="strokeWidth=2;html=1;shape=mxgraph.flowchart.database;whiteSpace=wrap;" vertex="1" parent="1">
          <mxGeometry x="380" y="-469" width="60" height="60" as="geometry" />
        </mxCell>
        <mxCell id="FJe9rlemv6NJPmRcLRrQ-5" value="UserDB" style="rounded=0;whiteSpace=wrap;html=1;fillColor=#dae8fc;strokeColor=#6c8ebf;" vertex="1" parent="1">
          <mxGeometry x="302" y="-1086" width="98" height="37" as="geometry" />
        </mxCell>
        <mxCell id="FJe9rlemv6NJPmRcLRrQ-6" value="" style="group" vertex="1" connectable="0" parent="1">
          <mxGeometry x="-223" y="-1086" width="488" height="264" as="geometry" />
        </mxCell>
        <mxCell id="FJe9rlemv6NJPmRcLRrQ-7" value="" style="rounded=0;whiteSpace=wrap;html=1;fillColor=default;" vertex="1" parent="FJe9rlemv6NJPmRcLRrQ-6">
          <mxGeometry width="488" height="264" as="geometry" />
        </mxCell>
        <mxCell id="FJe9rlemv6NJPmRcLRrQ-8" value="UserService" style="rounded=0;whiteSpace=wrap;html=1;fillColor=#dae8fc;strokeColor=#6c8ebf;" vertex="1" parent="FJe9rlemv6NJPmRcLRrQ-6">
          <mxGeometry width="85" height="42" as="geometry" />
        </mxCell>
        <mxCell id="FJe9rlemv6NJPmRcLRrQ-9" value="Controller" style="rounded=1;whiteSpace=wrap;html=1;fillColor=default;" vertex="1" parent="FJe9rlemv6NJPmRcLRrQ-6">
          <mxGeometry x="43" y="173" width="82" height="28" as="geometry" />
        </mxCell>
        <mxCell id="FJe9rlemv6NJPmRcLRrQ-10" value="Mapper" style="rounded=1;whiteSpace=wrap;html=1;fillColor=default;" vertex="1" parent="FJe9rlemv6NJPmRcLRrQ-6">
          <mxGeometry x="74.5" y="50" width="91" height="33" as="geometry" />
        </mxCell>
        <mxCell id="FJe9rlemv6NJPmRcLRrQ-11" value="DTO" style="rounded=1;whiteSpace=wrap;html=1;fillColor=default;" vertex="1" parent="FJe9rlemv6NJPmRcLRrQ-6">
          <mxGeometry x="43" y="118" width="82" height="28" as="geometry" />
        </mxCell>
        <mxCell id="blbhUG7mqCCAgmnZta2w-32" style="edgeStyle=orthogonalEdgeStyle;rounded=0;orthogonalLoop=1;jettySize=auto;html=1;exitX=0.5;exitY=1;exitDx=0;exitDy=0;entryX=0.5;entryY=0;entryDx=0;entryDy=0;fontSize=9;startArrow=classic;startFill=1;endArrow=classic;endFill=1;" edge="1" parent="FJe9rlemv6NJPmRcLRrQ-6" source="FJe9rlemv6NJPmRcLRrQ-12" target="blbhUG7mqCCAgmnZta2w-31">
          <mxGeometry relative="1" as="geometry" />
        </mxCell>
        <mxCell id="FJe9rlemv6NJPmRcLRrQ-12" value="Service" style="rounded=1;whiteSpace=wrap;html=1;fillColor=default;" vertex="1" parent="FJe9rlemv6NJPmRcLRrQ-6">
          <mxGeometry x="182" y="173" width="82" height="28" as="geometry" />
        </mxCell>
        <mxCell id="FJe9rlemv6NJPmRcLRrQ-13" value="Repository" style="rounded=1;whiteSpace=wrap;html=1;fillColor=default;" vertex="1" parent="FJe9rlemv6NJPmRcLRrQ-6">
          <mxGeometry x="334" y="173" width="82" height="28" as="geometry" />
        </mxCell>
        <mxCell id="FJe9rlemv6NJPmRcLRrQ-14" value="Model" style="rounded=1;whiteSpace=wrap;html=1;fillColor=default;" vertex="1" parent="FJe9rlemv6NJPmRcLRrQ-6">
          <mxGeometry x="203" y="118" width="82" height="28" as="geometry" />
        </mxCell>
        <mxCell id="FJe9rlemv6NJPmRcLRrQ-15" value="" style="endArrow=none;dashed=1;html=1;dashPattern=1 3;strokeWidth=2;rounded=0;exitX=1;exitY=0.5;exitDx=0;exitDy=0;entryX=0.5;entryY=0;entryDx=0;entryDy=0;" edge="1" parent="FJe9rlemv6NJPmRcLRrQ-6" source="FJe9rlemv6NJPmRcLRrQ-10" target="FJe9rlemv6NJPmRcLRrQ-14">
          <mxGeometry width="50" height="50" relative="1" as="geometry">
            <mxPoint x="241" y="296" as="sourcePoint" />
            <mxPoint x="291" y="246" as="targetPoint" />
            <Array as="points">
              <mxPoint x="244" y="67" />
            </Array>
          </mxGeometry>
        </mxCell>
        <mxCell id="FJe9rlemv6NJPmRcLRrQ-16" value="" style="endArrow=none;dashed=1;html=1;dashPattern=1 3;strokeWidth=2;rounded=0;entryX=0.5;entryY=1;entryDx=0;entryDy=0;exitX=0.5;exitY=0;exitDx=0;exitDy=0;" edge="1" parent="FJe9rlemv6NJPmRcLRrQ-6" source="FJe9rlemv6NJPmRcLRrQ-11" target="FJe9rlemv6NJPmRcLRrQ-10">
          <mxGeometry width="50" height="50" relative="1" as="geometry">
            <mxPoint x="241" y="296" as="sourcePoint" />
            <mxPoint x="291" y="246" as="targetPoint" />
            <Array as="points">
              <mxPoint x="84" y="107" />
              <mxPoint x="120" y="107" />
            </Array>
          </mxGeometry>
        </mxCell>
        <mxCell id="FJe9rlemv6NJPmRcLRrQ-17" value="" style="endArrow=classic;startArrow=classic;html=1;rounded=0;entryX=0;entryY=0.5;entryDx=0;entryDy=0;exitX=1;exitY=0.5;exitDx=0;exitDy=0;" edge="1" parent="FJe9rlemv6NJPmRcLRrQ-6" source="FJe9rlemv6NJPmRcLRrQ-9" target="FJe9rlemv6NJPmRcLRrQ-12">
          <mxGeometry width="50" height="50" relative="1" as="geometry">
            <mxPoint x="353" y="297" as="sourcePoint" />
            <mxPoint x="403" y="247" as="targetPoint" />
          </mxGeometry>
        </mxCell>
        <mxCell id="FJe9rlemv6NJPmRcLRrQ-18" value="" style="endArrow=classic;startArrow=classic;html=1;rounded=0;entryX=0;entryY=0.5;entryDx=0;entryDy=0;exitX=1;exitY=0.5;exitDx=0;exitDy=0;" edge="1" parent="FJe9rlemv6NJPmRcLRrQ-6" source="FJe9rlemv6NJPmRcLRrQ-12" target="FJe9rlemv6NJPmRcLRrQ-13">
          <mxGeometry width="50" height="50" relative="1" as="geometry">
            <mxPoint x="353" y="297" as="sourcePoint" />
            <mxPoint x="403" y="247" as="targetPoint" />
          </mxGeometry>
        </mxCell>
        <mxCell id="FJe9rlemv6NJPmRcLRrQ-19" value="" style="endArrow=classic;startArrow=classic;html=1;rounded=0;fontSize=11;entryX=0.5;entryY=1;entryDx=0;entryDy=0;exitX=0.5;exitY=0;exitDx=0;exitDy=0;" edge="1" parent="FJe9rlemv6NJPmRcLRrQ-6" source="FJe9rlemv6NJPmRcLRrQ-9" target="FJe9rlemv6NJPmRcLRrQ-11">
          <mxGeometry width="50" height="50" relative="1" as="geometry">
            <mxPoint x="423" y="357" as="sourcePoint" />
            <mxPoint x="473" y="307" as="targetPoint" />
          </mxGeometry>
        </mxCell>
        <mxCell id="FJe9rlemv6NJPmRcLRrQ-20" value="" style="endArrow=classic;startArrow=classic;html=1;rounded=0;fontSize=11;entryX=0.25;entryY=1;entryDx=0;entryDy=0;exitX=0.5;exitY=0;exitDx=0;exitDy=0;" edge="1" parent="FJe9rlemv6NJPmRcLRrQ-6" source="FJe9rlemv6NJPmRcLRrQ-12" target="FJe9rlemv6NJPmRcLRrQ-14">
          <mxGeometry width="50" height="50" relative="1" as="geometry">
            <mxPoint x="423" y="357" as="sourcePoint" />
            <mxPoint x="473" y="307" as="targetPoint" />
          </mxGeometry>
        </mxCell>
        <mxCell id="blbhUG7mqCCAgmnZta2w-31" value="AsyncProcess" style="rounded=1;whiteSpace=wrap;html=1;fillColor=default;" vertex="1" parent="FJe9rlemv6NJPmRcLRrQ-6">
          <mxGeometry x="182" y="217" width="82" height="28" as="geometry" />
        </mxCell>
        <mxCell id="L-RIdDMi9MvUVQ2PqStG-5" value="DTO externe" style="rounded=0;whiteSpace=wrap;html=1;" vertex="1" parent="FJe9rlemv6NJPmRcLRrQ-6">
          <mxGeometry x="400" width="88" height="42" as="geometry" />
        </mxCell>
        <mxCell id="FJe9rlemv6NJPmRcLRrQ-21" value="" style="endArrow=classic;startArrow=classic;html=1;rounded=0;entryX=0;entryY=0.5;entryDx=0;entryDy=0;exitX=1.002;exitY=0.086;exitDx=0;exitDy=0;exitPerimeter=0;" edge="1" parent="1" source="FJe9rlemv6NJPmRcLRrQ-2" target="FJe9rlemv6NJPmRcLRrQ-9">
          <mxGeometry width="50" height="50" relative="1" as="geometry">
            <mxPoint x="-430" y="-509" as="sourcePoint" />
            <mxPoint x="180" y="-839" as="targetPoint" />
            <Array as="points">
              <mxPoint x="-280" y="-529" />
              <mxPoint x="-280" y="-899" />
            </Array>
          </mxGeometry>
        </mxCell>
        <mxCell id="FJe9rlemv6NJPmRcLRrQ-22" value="User" style="shape=table;startSize=30;container=1;collapsible=1;childLayout=tableLayout;fixedRows=1;rowLines=0;fontStyle=1;align=center;resizeLast=1;fillColor=default;" vertex="1" parent="1">
          <mxGeometry x="420" y="-1069" width="130" height="240" as="geometry">
            <mxRectangle x="790" y="-225" width="70" height="30" as="alternateBounds" />
          </mxGeometry>
        </mxCell>
        <mxCell id="FJe9rlemv6NJPmRcLRrQ-23" value="" style="shape=tableRow;horizontal=0;startSize=0;swimlaneHead=0;swimlaneBody=0;fillColor=none;collapsible=0;dropTarget=0;points=[[0,0.5],[1,0.5]];portConstraint=eastwest;top=0;left=0;right=0;bottom=1;" vertex="1" parent="FJe9rlemv6NJPmRcLRrQ-22">
          <mxGeometry y="30" width="130" height="30" as="geometry" />
        </mxCell>
        <mxCell id="FJe9rlemv6NJPmRcLRrQ-24" value="PK" style="shape=partialRectangle;connectable=0;fillColor=none;top=0;left=0;bottom=0;right=0;fontStyle=1;overflow=hidden;" vertex="1" parent="FJe9rlemv6NJPmRcLRrQ-23">
          <mxGeometry width="30" height="30" as="geometry">
            <mxRectangle width="30" height="30" as="alternateBounds" />
          </mxGeometry>
        </mxCell>
        <mxCell id="FJe9rlemv6NJPmRcLRrQ-25" value="idUser" style="shape=partialRectangle;connectable=0;fillColor=none;top=0;left=0;bottom=0;right=0;align=left;spacingLeft=6;fontStyle=5;overflow=hidden;" vertex="1" parent="FJe9rlemv6NJPmRcLRrQ-23">
          <mxGeometry x="30" width="100" height="30" as="geometry">
            <mxRectangle width="100" height="30" as="alternateBounds" />
          </mxGeometry>
        </mxCell>
        <mxCell id="FJe9rlemv6NJPmRcLRrQ-26" value="" style="shape=tableRow;horizontal=0;startSize=0;swimlaneHead=0;swimlaneBody=0;fillColor=none;collapsible=0;dropTarget=0;points=[[0,0.5],[1,0.5]];portConstraint=eastwest;top=0;left=0;right=0;bottom=0;" vertex="1" parent="FJe9rlemv6NJPmRcLRrQ-22">
          <mxGeometry y="60" width="130" height="35" as="geometry" />
        </mxCell>
        <mxCell id="FJe9rlemv6NJPmRcLRrQ-27" value="" style="shape=partialRectangle;connectable=0;fillColor=none;top=0;left=0;bottom=0;right=0;editable=1;overflow=hidden;" vertex="1" parent="FJe9rlemv6NJPmRcLRrQ-26">
          <mxGeometry width="30" height="35" as="geometry">
            <mxRectangle width="30" height="35" as="alternateBounds" />
          </mxGeometry>
        </mxCell>
        <mxCell id="FJe9rlemv6NJPmRcLRrQ-28" value="loginUser" style="shape=partialRectangle;connectable=0;fillColor=none;top=0;left=0;bottom=0;right=0;align=left;spacingLeft=6;overflow=hidden;" vertex="1" parent="FJe9rlemv6NJPmRcLRrQ-26">
          <mxGeometry x="30" width="100" height="35" as="geometry">
            <mxRectangle width="100" height="35" as="alternateBounds" />
          </mxGeometry>
        </mxCell>
        <mxCell id="FJe9rlemv6NJPmRcLRrQ-29" value="" style="shape=tableRow;horizontal=0;startSize=0;swimlaneHead=0;swimlaneBody=0;fillColor=none;collapsible=0;dropTarget=0;points=[[0,0.5],[1,0.5]];portConstraint=eastwest;top=0;left=0;right=0;bottom=0;" vertex="1" parent="FJe9rlemv6NJPmRcLRrQ-22">
          <mxGeometry y="95" width="130" height="30" as="geometry" />
        </mxCell>
        <mxCell id="FJe9rlemv6NJPmRcLRrQ-30" value="" style="shape=partialRectangle;connectable=0;fillColor=none;top=0;left=0;bottom=0;right=0;editable=1;overflow=hidden;" vertex="1" parent="FJe9rlemv6NJPmRcLRrQ-29">
          <mxGeometry width="30" height="30" as="geometry">
            <mxRectangle width="30" height="30" as="alternateBounds" />
          </mxGeometry>
        </mxCell>
        <mxCell id="FJe9rlemv6NJPmRcLRrQ-31" value="pwdUser" style="shape=partialRectangle;connectable=0;fillColor=none;top=0;left=0;bottom=0;right=0;align=left;spacingLeft=6;overflow=hidden;" vertex="1" parent="FJe9rlemv6NJPmRcLRrQ-29">
          <mxGeometry x="30" width="100" height="30" as="geometry">
            <mxRectangle width="100" height="30" as="alternateBounds" />
          </mxGeometry>
        </mxCell>
        <mxCell id="FJe9rlemv6NJPmRcLRrQ-32" value="" style="shape=tableRow;horizontal=0;startSize=0;swimlaneHead=0;swimlaneBody=0;fillColor=none;collapsible=0;dropTarget=0;points=[[0,0.5],[1,0.5]];portConstraint=eastwest;top=0;left=0;right=0;bottom=0;" vertex="1" parent="FJe9rlemv6NJPmRcLRrQ-22">
          <mxGeometry y="125" width="130" height="30" as="geometry" />
        </mxCell>
        <mxCell id="FJe9rlemv6NJPmRcLRrQ-33" value="" style="shape=partialRectangle;connectable=0;fillColor=none;top=0;left=0;bottom=0;right=0;editable=1;overflow=hidden;" vertex="1" parent="FJe9rlemv6NJPmRcLRrQ-32">
          <mxGeometry width="30" height="30" as="geometry">
            <mxRectangle width="30" height="30" as="alternateBounds" />
          </mxGeometry>
        </mxCell>
        <mxCell id="FJe9rlemv6NJPmRcLRrQ-34" value="accountUser" style="shape=partialRectangle;connectable=0;fillColor=none;top=0;left=0;bottom=0;right=0;align=left;spacingLeft=6;overflow=hidden;" vertex="1" parent="FJe9rlemv6NJPmRcLRrQ-32">
          <mxGeometry x="30" width="100" height="30" as="geometry">
            <mxRectangle width="100" height="30" as="alternateBounds" />
          </mxGeometry>
        </mxCell>
        <mxCell id="FJe9rlemv6NJPmRcLRrQ-35" value="" style="group" vertex="1" connectable="0" parent="1">
          <mxGeometry x="-223" y="-796" width="1051" height="561" as="geometry" />
        </mxCell>
        <mxCell id="FJe9rlemv6NJPmRcLRrQ-36" value="" style="rounded=0;whiteSpace=wrap;html=1;fillColor=default;" vertex="1" parent="FJe9rlemv6NJPmRcLRrQ-35">
          <mxGeometry width="488" height="264" as="geometry" />
        </mxCell>
        <mxCell id="FJe9rlemv6NJPmRcLRrQ-37" value="AuthService" style="rounded=0;whiteSpace=wrap;html=1;fillColor=#f5f5f5;strokeColor=#666666;fontColor=#333333;" vertex="1" parent="FJe9rlemv6NJPmRcLRrQ-35">
          <mxGeometry width="85" height="42" as="geometry" />
        </mxCell>
        <mxCell id="FJe9rlemv6NJPmRcLRrQ-38" value="Controller" style="rounded=1;whiteSpace=wrap;html=1;fillColor=default;" vertex="1" parent="FJe9rlemv6NJPmRcLRrQ-35">
          <mxGeometry x="43" y="173" width="82" height="28" as="geometry" />
        </mxCell>
        <mxCell id="FJe9rlemv6NJPmRcLRrQ-39" value="DTO" style="rounded=1;whiteSpace=wrap;html=1;fillColor=default;" vertex="1" parent="FJe9rlemv6NJPmRcLRrQ-35">
          <mxGeometry x="43" y="118" width="82" height="28" as="geometry" />
        </mxCell>
        <mxCell id="FJe9rlemv6NJPmRcLRrQ-40" value="Service" style="rounded=1;whiteSpace=wrap;html=1;fillColor=default;" vertex="1" parent="FJe9rlemv6NJPmRcLRrQ-35">
          <mxGeometry x="182" y="173" width="82" height="28" as="geometry" />
        </mxCell>
        <mxCell id="FJe9rlemv6NJPmRcLRrQ-41" value="" style="endArrow=classic;startArrow=classic;html=1;rounded=0;entryX=0;entryY=0.5;entryDx=0;entryDy=0;exitX=1;exitY=0.5;exitDx=0;exitDy=0;" edge="1" parent="FJe9rlemv6NJPmRcLRrQ-35" source="FJe9rlemv6NJPmRcLRrQ-38" target="FJe9rlemv6NJPmRcLRrQ-40">
          <mxGeometry width="50" height="50" relative="1" as="geometry">
            <mxPoint x="353" y="297" as="sourcePoint" />
            <mxPoint x="403" y="247" as="targetPoint" />
          </mxGeometry>
        </mxCell>
        <mxCell id="FJe9rlemv6NJPmRcLRrQ-42" value="" style="endArrow=classic;startArrow=classic;html=1;rounded=0;fontSize=11;entryX=0.5;entryY=1;entryDx=0;entryDy=0;exitX=0.5;exitY=0;exitDx=0;exitDy=0;" edge="1" parent="FJe9rlemv6NJPmRcLRrQ-35" source="FJe9rlemv6NJPmRcLRrQ-38" target="FJe9rlemv6NJPmRcLRrQ-39">
          <mxGeometry width="50" height="50" relative="1" as="geometry">
            <mxPoint x="423" y="357" as="sourcePoint" />
            <mxPoint x="473" y="307" as="targetPoint" />
          </mxGeometry>
        </mxCell>
        <mxCell id="FJe9rlemv6NJPmRcLRrQ-43" value="" style="group" vertex="1" connectable="0" parent="FJe9rlemv6NJPmRcLRrQ-35">
          <mxGeometry y="297" width="488" height="264" as="geometry" />
        </mxCell>
        <mxCell id="FJe9rlemv6NJPmRcLRrQ-44" value="" style="rounded=0;whiteSpace=wrap;html=1;fillColor=default;" vertex="1" parent="FJe9rlemv6NJPmRcLRrQ-43">
          <mxGeometry width="488" height="264" as="geometry" />
        </mxCell>
        <mxCell id="FJe9rlemv6NJPmRcLRrQ-45" value="StoreService" style="rounded=0;whiteSpace=wrap;html=1;fillColor=#f8cecc;strokeColor=#b85450;" vertex="1" parent="FJe9rlemv6NJPmRcLRrQ-43">
          <mxGeometry width="85" height="42" as="geometry" />
        </mxCell>
        <mxCell id="FJe9rlemv6NJPmRcLRrQ-46" value="Controller" style="rounded=1;whiteSpace=wrap;html=1;fillColor=default;" vertex="1" parent="FJe9rlemv6NJPmRcLRrQ-43">
          <mxGeometry x="43" y="173" width="82" height="28" as="geometry" />
        </mxCell>
        <mxCell id="FJe9rlemv6NJPmRcLRrQ-47" value="Mapper" style="rounded=1;whiteSpace=wrap;html=1;fillColor=default;" vertex="1" parent="FJe9rlemv6NJPmRcLRrQ-43">
          <mxGeometry x="74.5" y="50" width="91" height="33" as="geometry" />
        </mxCell>
        <mxCell id="FJe9rlemv6NJPmRcLRrQ-48" value="DTO" style="rounded=1;whiteSpace=wrap;html=1;fillColor=default;" vertex="1" parent="FJe9rlemv6NJPmRcLRrQ-43">
          <mxGeometry x="79" y="118" width="82" height="28" as="geometry" />
        </mxCell>
        <mxCell id="blbhUG7mqCCAgmnZta2w-29" style="edgeStyle=orthogonalEdgeStyle;rounded=0;orthogonalLoop=1;jettySize=auto;html=1;exitX=0.5;exitY=0;exitDx=0;exitDy=0;entryX=0.5;entryY=1;entryDx=0;entryDy=0;fontSize=9;startArrow=classic;startFill=1;endArrow=classic;endFill=1;" edge="1" parent="FJe9rlemv6NJPmRcLRrQ-43" source="FJe9rlemv6NJPmRcLRrQ-49" target="blbhUG7mqCCAgmnZta2w-28">
          <mxGeometry relative="1" as="geometry">
            <Array as="points">
              <mxPoint x="223" y="160" />
              <mxPoint x="375" y="160" />
            </Array>
          </mxGeometry>
        </mxCell>
        <mxCell id="FJe9rlemv6NJPmRcLRrQ-49" value="Service" style="rounded=1;whiteSpace=wrap;html=1;fillColor=default;" vertex="1" parent="FJe9rlemv6NJPmRcLRrQ-43">
          <mxGeometry x="182" y="173" width="82" height="28" as="geometry" />
        </mxCell>
        <mxCell id="FJe9rlemv6NJPmRcLRrQ-50" value="Repository" style="rounded=1;whiteSpace=wrap;html=1;fillColor=default;" vertex="1" parent="FJe9rlemv6NJPmRcLRrQ-43">
          <mxGeometry x="334" y="173" width="82" height="28" as="geometry" />
        </mxCell>
        <mxCell id="FJe9rlemv6NJPmRcLRrQ-51" value="Transaction" style="rounded=1;whiteSpace=wrap;html=1;fillColor=default;" vertex="1" parent="FJe9rlemv6NJPmRcLRrQ-43">
          <mxGeometry x="213" y="118" width="82" height="28" as="geometry" />
        </mxCell>
        <mxCell id="FJe9rlemv6NJPmRcLRrQ-52" value="" style="endArrow=none;dashed=1;html=1;dashPattern=1 3;strokeWidth=2;rounded=0;exitX=1;exitY=0.5;exitDx=0;exitDy=0;entryX=0.5;entryY=0;entryDx=0;entryDy=0;" edge="1" parent="FJe9rlemv6NJPmRcLRrQ-43" source="FJe9rlemv6NJPmRcLRrQ-47" target="FJe9rlemv6NJPmRcLRrQ-51">
          <mxGeometry width="50" height="50" relative="1" as="geometry">
            <mxPoint x="241" y="296" as="sourcePoint" />
            <mxPoint x="291" y="246" as="targetPoint" />
            <Array as="points">
              <mxPoint x="253" y="67" />
            </Array>
          </mxGeometry>
        </mxCell>
        <mxCell id="FJe9rlemv6NJPmRcLRrQ-53" value="" style="endArrow=none;dashed=1;html=1;dashPattern=1 3;strokeWidth=2;rounded=0;entryX=0.5;entryY=1;entryDx=0;entryDy=0;exitX=0.5;exitY=0;exitDx=0;exitDy=0;" edge="1" parent="FJe9rlemv6NJPmRcLRrQ-43" source="FJe9rlemv6NJPmRcLRrQ-48" target="FJe9rlemv6NJPmRcLRrQ-47">
          <mxGeometry width="50" height="50" relative="1" as="geometry">
            <mxPoint x="241" y="296" as="sourcePoint" />
            <mxPoint x="291" y="246" as="targetPoint" />
          </mxGeometry>
        </mxCell>
        <mxCell id="FJe9rlemv6NJPmRcLRrQ-54" value="" style="endArrow=classic;startArrow=classic;html=1;rounded=0;entryX=0;entryY=0.5;entryDx=0;entryDy=0;exitX=1;exitY=0.5;exitDx=0;exitDy=0;" edge="1" parent="FJe9rlemv6NJPmRcLRrQ-43" source="FJe9rlemv6NJPmRcLRrQ-46" target="FJe9rlemv6NJPmRcLRrQ-49">
          <mxGeometry width="50" height="50" relative="1" as="geometry">
            <mxPoint x="353" y="297" as="sourcePoint" />
            <mxPoint x="403" y="247" as="targetPoint" />
          </mxGeometry>
        </mxCell>
        <mxCell id="FJe9rlemv6NJPmRcLRrQ-55" value="" style="endArrow=classic;startArrow=classic;html=1;rounded=0;entryX=0;entryY=0.5;entryDx=0;entryDy=0;exitX=1;exitY=0.5;exitDx=0;exitDy=0;" edge="1" parent="FJe9rlemv6NJPmRcLRrQ-43" source="FJe9rlemv6NJPmRcLRrQ-49" target="FJe9rlemv6NJPmRcLRrQ-50">
          <mxGeometry width="50" height="50" relative="1" as="geometry">
            <mxPoint x="353" y="297" as="sourcePoint" />
            <mxPoint x="403" y="247" as="targetPoint" />
          </mxGeometry>
        </mxCell>
        <mxCell id="FJe9rlemv6NJPmRcLRrQ-56" value="" style="endArrow=classic;startArrow=classic;html=1;rounded=0;fontSize=11;entryX=0;entryY=0.5;entryDx=0;entryDy=0;exitX=0.5;exitY=0;exitDx=0;exitDy=0;" edge="1" parent="FJe9rlemv6NJPmRcLRrQ-43" source="FJe9rlemv6NJPmRcLRrQ-46" target="FJe9rlemv6NJPmRcLRrQ-48">
          <mxGeometry width="50" height="50" relative="1" as="geometry">
            <mxPoint x="423" y="357" as="sourcePoint" />
            <mxPoint x="473" y="307" as="targetPoint" />
            <Array as="points">
              <mxPoint x="84" y="160" />
              <mxPoint x="63" y="160" />
              <mxPoint x="63" y="132" />
            </Array>
          </mxGeometry>
        </mxCell>
        <mxCell id="FJe9rlemv6NJPmRcLRrQ-57" value="" style="endArrow=classic;startArrow=classic;html=1;rounded=0;fontSize=11;entryX=0.5;entryY=1;entryDx=0;entryDy=0;exitX=0.5;exitY=0;exitDx=0;exitDy=0;" edge="1" parent="FJe9rlemv6NJPmRcLRrQ-43" source="FJe9rlemv6NJPmRcLRrQ-49" target="FJe9rlemv6NJPmRcLRrQ-51">
          <mxGeometry width="50" height="50" relative="1" as="geometry">
            <mxPoint x="423" y="357" as="sourcePoint" />
            <mxPoint x="473" y="307" as="targetPoint" />
            <Array as="points">
              <mxPoint x="223" y="160" />
              <mxPoint x="254" y="160" />
            </Array>
          </mxGeometry>
        </mxCell>
        <mxCell id="FJe9rlemv6NJPmRcLRrQ-213" value="Order" style="rounded=1;whiteSpace=wrap;html=1;fillColor=default;" vertex="1" parent="FJe9rlemv6NJPmRcLRrQ-43">
          <mxGeometry x="43" y="220" width="82" height="28" as="geometry" />
        </mxCell>
        <mxCell id="FJe9rlemv6NJPmRcLRrQ-214" value="Action" style="rounded=1;whiteSpace=wrap;html=1;fillColor=default;" vertex="1" parent="FJe9rlemv6NJPmRcLRrQ-43">
          <mxGeometry x="182" y="220" width="82" height="28" as="geometry" />
        </mxCell>
        <mxCell id="FJe9rlemv6NJPmRcLRrQ-215" value="" style="endArrow=classic;startArrow=classic;html=1;rounded=0;fontSize=11;entryX=0.5;entryY=1;entryDx=0;entryDy=0;" edge="1" parent="FJe9rlemv6NJPmRcLRrQ-43" source="FJe9rlemv6NJPmRcLRrQ-213" target="FJe9rlemv6NJPmRcLRrQ-46">
          <mxGeometry width="50" height="50" relative="1" as="geometry">
            <mxPoint x="73.5" y="183" as="sourcePoint" />
            <mxPoint x="89" y="142" as="targetPoint" />
            <Array as="points" />
          </mxGeometry>
        </mxCell>
        <mxCell id="FJe9rlemv6NJPmRcLRrQ-216" value="" style="endArrow=classic;startArrow=classic;html=1;rounded=0;fontSize=11;entryX=0.5;entryY=1;entryDx=0;entryDy=0;" edge="1" parent="FJe9rlemv6NJPmRcLRrQ-43" source="FJe9rlemv6NJPmRcLRrQ-214" target="FJe9rlemv6NJPmRcLRrQ-49">
          <mxGeometry width="50" height="50" relative="1" as="geometry">
            <mxPoint x="98.66157575757552" y="230" as="sourcePoint" />
            <mxPoint x="104.98799999999983" y="211" as="targetPoint" />
            <Array as="points" />
          </mxGeometry>
        </mxCell>
        <mxCell id="blbhUG7mqCCAgmnZta2w-28" value="AsyncProcess" style="rounded=1;whiteSpace=wrap;html=1;fillColor=default;" vertex="1" parent="FJe9rlemv6NJPmRcLRrQ-43">
          <mxGeometry x="334" y="118" width="82" height="28" as="geometry" />
        </mxCell>
        <mxCell id="L-RIdDMi9MvUVQ2PqStG-3" value="DTO externe" style="rounded=0;whiteSpace=wrap;html=1;" vertex="1" parent="FJe9rlemv6NJPmRcLRrQ-43">
          <mxGeometry x="390" width="98" height="42" as="geometry" />
        </mxCell>
        <mxCell id="FJe9rlemv6NJPmRcLRrQ-58" value="" style="rounded=0;whiteSpace=wrap;html=1;fillColor=default;" vertex="1" parent="FJe9rlemv6NJPmRcLRrQ-35">
          <mxGeometry x="523" y="297" width="528" height="264" as="geometry" />
        </mxCell>
        <mxCell id="FJe9rlemv6NJPmRcLRrQ-59" value="StoreDB" style="rounded=0;whiteSpace=wrap;html=1;fillColor=#f8cecc;strokeColor=#b85450;" vertex="1" parent="FJe9rlemv6NJPmRcLRrQ-35">
          <mxGeometry x="523" y="297" width="98" height="37" as="geometry" />
        </mxCell>
        <mxCell id="FJe9rlemv6NJPmRcLRrQ-60" value="" style="strokeWidth=2;html=1;shape=mxgraph.flowchart.database;whiteSpace=wrap;" vertex="1" parent="FJe9rlemv6NJPmRcLRrQ-35">
          <mxGeometry x="561" y="399" width="60" height="60" as="geometry" />
        </mxCell>
        <mxCell id="FJe9rlemv6NJPmRcLRrQ-61" value="" style="endArrow=classic;startArrow=classic;html=1;rounded=0;fontSize=11;entryX=1;entryY=0.5;entryDx=0;entryDy=0;exitX=0;exitY=0.5;exitDx=0;exitDy=0;exitPerimeter=0;" edge="1" parent="FJe9rlemv6NJPmRcLRrQ-35" source="FJe9rlemv6NJPmRcLRrQ-60" target="FJe9rlemv6NJPmRcLRrQ-50">
          <mxGeometry width="50" height="50" relative="1" as="geometry">
            <mxPoint x="233" y="317" as="sourcePoint" />
            <mxPoint x="283" y="267" as="targetPoint" />
            <Array as="points">
              <mxPoint x="503" y="429" />
              <mxPoint x="503" y="484" />
            </Array>
          </mxGeometry>
        </mxCell>
        <mxCell id="FJe9rlemv6NJPmRcLRrQ-62" value="Transaction" style="shape=table;startSize=30;container=1;collapsible=1;childLayout=tableLayout;fixedRows=1;rowLines=0;fontStyle=1;align=center;resizeLast=1;fillColor=default;" vertex="1" parent="FJe9rlemv6NJPmRcLRrQ-35">
          <mxGeometry x="663" y="334" width="127" height="216" as="geometry">
            <mxRectangle x="790" y="-225" width="70" height="30" as="alternateBounds" />
          </mxGeometry>
        </mxCell>
        <mxCell id="FJe9rlemv6NJPmRcLRrQ-63" value="" style="shape=tableRow;horizontal=0;startSize=0;swimlaneHead=0;swimlaneBody=0;fillColor=none;collapsible=0;dropTarget=0;points=[[0,0.5],[1,0.5]];portConstraint=eastwest;top=0;left=0;right=0;bottom=1;" vertex="1" parent="FJe9rlemv6NJPmRcLRrQ-62">
          <mxGeometry y="30" width="127" height="30" as="geometry" />
        </mxCell>
        <mxCell id="FJe9rlemv6NJPmRcLRrQ-64" value="PK" style="shape=partialRectangle;connectable=0;fillColor=none;top=0;left=0;bottom=0;right=0;fontStyle=1;overflow=hidden;" vertex="1" parent="FJe9rlemv6NJPmRcLRrQ-63">
          <mxGeometry width="30" height="30" as="geometry">
            <mxRectangle width="30" height="30" as="alternateBounds" />
          </mxGeometry>
        </mxCell>
        <mxCell id="FJe9rlemv6NJPmRcLRrQ-65" value="idTransaction" style="shape=partialRectangle;connectable=0;fillColor=none;top=0;left=0;bottom=0;right=0;align=left;spacingLeft=6;fontStyle=5;overflow=hidden;" vertex="1" parent="FJe9rlemv6NJPmRcLRrQ-63">
          <mxGeometry x="30" width="97" height="30" as="geometry">
            <mxRectangle width="97" height="30" as="alternateBounds" />
          </mxGeometry>
        </mxCell>
        <mxCell id="FJe9rlemv6NJPmRcLRrQ-66" value="" style="shape=tableRow;horizontal=0;startSize=0;swimlaneHead=0;swimlaneBody=0;fillColor=none;collapsible=0;dropTarget=0;points=[[0,0.5],[1,0.5]];portConstraint=eastwest;top=0;left=0;right=0;bottom=0;" vertex="1" parent="FJe9rlemv6NJPmRcLRrQ-62">
          <mxGeometry y="60" width="127" height="30" as="geometry" />
        </mxCell>
        <mxCell id="FJe9rlemv6NJPmRcLRrQ-67" value="" style="shape=partialRectangle;connectable=0;fillColor=none;top=0;left=0;bottom=0;right=0;editable=1;overflow=hidden;" vertex="1" parent="FJe9rlemv6NJPmRcLRrQ-66">
          <mxGeometry width="30" height="30" as="geometry">
            <mxRectangle width="30" height="30" as="alternateBounds" />
          </mxGeometry>
        </mxCell>
        <mxCell id="FJe9rlemv6NJPmRcLRrQ-68" value="userId" style="shape=partialRectangle;connectable=0;fillColor=none;top=0;left=0;bottom=0;right=0;align=left;spacingLeft=6;overflow=hidden;" vertex="1" parent="FJe9rlemv6NJPmRcLRrQ-66">
          <mxGeometry x="30" width="97" height="30" as="geometry">
            <mxRectangle width="97" height="30" as="alternateBounds" />
          </mxGeometry>
        </mxCell>
        <mxCell id="FJe9rlemv6NJPmRcLRrQ-69" value="" style="shape=tableRow;horizontal=0;startSize=0;swimlaneHead=0;swimlaneBody=0;fillColor=none;collapsible=0;dropTarget=0;points=[[0,0.5],[1,0.5]];portConstraint=eastwest;top=0;left=0;right=0;bottom=0;" vertex="1" parent="FJe9rlemv6NJPmRcLRrQ-62">
          <mxGeometry y="90" width="127" height="30" as="geometry" />
        </mxCell>
        <mxCell id="FJe9rlemv6NJPmRcLRrQ-70" value="" style="shape=partialRectangle;connectable=0;fillColor=none;top=0;left=0;bottom=0;right=0;editable=1;overflow=hidden;" vertex="1" parent="FJe9rlemv6NJPmRcLRrQ-69">
          <mxGeometry width="30" height="30" as="geometry">
            <mxRectangle width="30" height="30" as="alternateBounds" />
          </mxGeometry>
        </mxCell>
        <mxCell id="FJe9rlemv6NJPmRcLRrQ-71" value="cardId" style="shape=partialRectangle;connectable=0;fillColor=none;top=0;left=0;bottom=0;right=0;align=left;spacingLeft=6;overflow=hidden;" vertex="1" parent="FJe9rlemv6NJPmRcLRrQ-69">
          <mxGeometry x="30" width="97" height="30" as="geometry">
            <mxRectangle width="97" height="30" as="alternateBounds" />
          </mxGeometry>
        </mxCell>
        <mxCell id="FJe9rlemv6NJPmRcLRrQ-72" value="" style="shape=tableRow;horizontal=0;startSize=0;swimlaneHead=0;swimlaneBody=0;fillColor=none;collapsible=0;dropTarget=0;points=[[0,0.5],[1,0.5]];portConstraint=eastwest;top=0;left=0;right=0;bottom=0;" vertex="1" parent="FJe9rlemv6NJPmRcLRrQ-62">
          <mxGeometry y="120" width="127" height="30" as="geometry" />
        </mxCell>
        <mxCell id="FJe9rlemv6NJPmRcLRrQ-73" value="" style="shape=partialRectangle;connectable=0;fillColor=none;top=0;left=0;bottom=0;right=0;editable=1;overflow=hidden;" vertex="1" parent="FJe9rlemv6NJPmRcLRrQ-72">
          <mxGeometry width="30" height="30" as="geometry">
            <mxRectangle width="30" height="30" as="alternateBounds" />
          </mxGeometry>
        </mxCell>
        <mxCell id="FJe9rlemv6NJPmRcLRrQ-74" value="action" style="shape=partialRectangle;connectable=0;fillColor=none;top=0;left=0;bottom=0;right=0;align=left;spacingLeft=6;overflow=hidden;" vertex="1" parent="FJe9rlemv6NJPmRcLRrQ-72">
          <mxGeometry x="30" width="97" height="30" as="geometry">
            <mxRectangle width="97" height="30" as="alternateBounds" />
          </mxGeometry>
        </mxCell>
        <mxCell id="FJe9rlemv6NJPmRcLRrQ-75" value="" style="shape=tableRow;horizontal=0;startSize=0;swimlaneHead=0;swimlaneBody=0;fillColor=none;collapsible=0;dropTarget=0;points=[[0,0.5],[1,0.5]];portConstraint=eastwest;top=0;left=0;right=0;bottom=0;" vertex="1" parent="FJe9rlemv6NJPmRcLRrQ-62">
          <mxGeometry y="150" width="127" height="30" as="geometry" />
        </mxCell>
        <mxCell id="FJe9rlemv6NJPmRcLRrQ-76" value="" style="shape=partialRectangle;connectable=0;fillColor=none;top=0;left=0;bottom=0;right=0;editable=1;overflow=hidden;" vertex="1" parent="FJe9rlemv6NJPmRcLRrQ-75">
          <mxGeometry width="30" height="30" as="geometry">
            <mxRectangle width="30" height="30" as="alternateBounds" />
          </mxGeometry>
        </mxCell>
        <mxCell id="FJe9rlemv6NJPmRcLRrQ-77" value="timeSt" style="shape=partialRectangle;connectable=0;fillColor=none;top=0;left=0;bottom=0;right=0;align=left;spacingLeft=6;overflow=hidden;" vertex="1" parent="FJe9rlemv6NJPmRcLRrQ-75">
          <mxGeometry x="30" width="97" height="30" as="geometry">
            <mxRectangle width="97" height="30" as="alternateBounds" />
          </mxGeometry>
        </mxCell>
        <mxCell id="FJe9rlemv6NJPmRcLRrQ-78" value="" style="group" vertex="1" connectable="0" parent="FJe9rlemv6NJPmRcLRrQ-35">
          <mxGeometry y="588" width="488" height="264" as="geometry" />
        </mxCell>
        <mxCell id="FJe9rlemv6NJPmRcLRrQ-79" value="" style="rounded=0;whiteSpace=wrap;html=1;fillColor=default;" vertex="1" parent="FJe9rlemv6NJPmRcLRrQ-78">
          <mxGeometry width="488" height="264" as="geometry" />
        </mxCell>
        <mxCell id="FJe9rlemv6NJPmRcLRrQ-80" value="CardService" style="rounded=0;whiteSpace=wrap;html=1;fillColor=#fff2cc;strokeColor=#d6b656;" vertex="1" parent="FJe9rlemv6NJPmRcLRrQ-78">
          <mxGeometry width="85" height="42" as="geometry" />
        </mxCell>
        <mxCell id="FJe9rlemv6NJPmRcLRrQ-333" style="edgeStyle=orthogonalEdgeStyle;rounded=0;orthogonalLoop=1;jettySize=auto;html=1;exitX=0.5;exitY=0;exitDx=0;exitDy=0;entryX=0.5;entryY=1;entryDx=0;entryDy=0;fontSize=9;startArrow=none;startFill=0;" edge="1" parent="FJe9rlemv6NJPmRcLRrQ-78" source="FJe9rlemv6NJPmRcLRrQ-81" target="FJe9rlemv6NJPmRcLRrQ-83">
          <mxGeometry relative="1" as="geometry" />
        </mxCell>
        <mxCell id="FJe9rlemv6NJPmRcLRrQ-81" value="Controller" style="rounded=1;whiteSpace=wrap;html=1;fillColor=default;" vertex="1" parent="FJe9rlemv6NJPmRcLRrQ-78">
          <mxGeometry x="93" y="123" width="82" height="28" as="geometry" />
        </mxCell>
        <mxCell id="FJe9rlemv6NJPmRcLRrQ-82" value="Mapper" style="rounded=1;whiteSpace=wrap;html=1;fillColor=default;" vertex="1" parent="FJe9rlemv6NJPmRcLRrQ-78">
          <mxGeometry x="93" y="9" width="107" height="33" as="geometry" />
        </mxCell>
        <mxCell id="FJe9rlemv6NJPmRcLRrQ-332" style="edgeStyle=orthogonalEdgeStyle;rounded=0;orthogonalLoop=1;jettySize=auto;html=1;exitX=0.5;exitY=1;exitDx=0;exitDy=0;entryX=0.5;entryY=0;entryDx=0;entryDy=0;fontSize=9;startArrow=none;startFill=0;" edge="1" parent="FJe9rlemv6NJPmRcLRrQ-78" source="FJe9rlemv6NJPmRcLRrQ-83" target="FJe9rlemv6NJPmRcLRrQ-81">
          <mxGeometry relative="1" as="geometry" />
        </mxCell>
        <mxCell id="FJe9rlemv6NJPmRcLRrQ-83" value="DTO" style="rounded=1;whiteSpace=wrap;html=1;fillColor=default;" vertex="1" parent="FJe9rlemv6NJPmRcLRrQ-78">
          <mxGeometry x="93" y="68" width="82" height="28" as="geometry" />
        </mxCell>
        <mxCell id="FJe9rlemv6NJPmRcLRrQ-335" style="edgeStyle=orthogonalEdgeStyle;rounded=0;orthogonalLoop=1;jettySize=auto;html=1;exitX=0.5;exitY=0;exitDx=0;exitDy=0;entryX=0.5;entryY=1;entryDx=0;entryDy=0;fontSize=9;startArrow=none;startFill=0;" edge="1" parent="FJe9rlemv6NJPmRcLRrQ-78" source="FJe9rlemv6NJPmRcLRrQ-84" target="FJe9rlemv6NJPmRcLRrQ-86">
          <mxGeometry relative="1" as="geometry" />
        </mxCell>
        <mxCell id="blbhUG7mqCCAgmnZta2w-22" style="edgeStyle=orthogonalEdgeStyle;rounded=0;orthogonalLoop=1;jettySize=auto;html=1;exitX=0.5;exitY=1;exitDx=0;exitDy=0;entryX=0;entryY=0.5;entryDx=0;entryDy=0;fontSize=9;startArrow=classic;startFill=1;endArrow=classic;endFill=1;" edge="1" parent="FJe9rlemv6NJPmRcLRrQ-78" source="FJe9rlemv6NJPmRcLRrQ-84" target="FJe9rlemv6NJPmRcLRrQ-305">
          <mxGeometry relative="1" as="geometry" />
        </mxCell>
        <mxCell id="blbhUG7mqCCAgmnZta2w-26" style="edgeStyle=orthogonalEdgeStyle;rounded=0;orthogonalLoop=1;jettySize=auto;html=1;exitX=0.5;exitY=1;exitDx=0;exitDy=0;entryX=0;entryY=0.5;entryDx=0;entryDy=0;fontSize=9;startArrow=classic;startFill=1;endArrow=classic;endFill=1;" edge="1" parent="FJe9rlemv6NJPmRcLRrQ-78" source="FJe9rlemv6NJPmRcLRrQ-84" target="FJe9rlemv6NJPmRcLRrQ-307">
          <mxGeometry relative="1" as="geometry">
            <Array as="points">
              <mxPoint x="264" y="189" />
              <mxPoint x="333" y="189" />
              <mxPoint x="333" y="243" />
            </Array>
          </mxGeometry>
        </mxCell>
        <mxCell id="FJe9rlemv6NJPmRcLRrQ-84" value="Model Service" style="rounded=1;whiteSpace=wrap;html=1;fillColor=default;" vertex="1" parent="FJe9rlemv6NJPmRcLRrQ-78">
          <mxGeometry x="223" y="123" width="82" height="28" as="geometry" />
        </mxCell>
        <mxCell id="FJe9rlemv6NJPmRcLRrQ-85" value="Model Repository" style="rounded=1;whiteSpace=wrap;html=1;fillColor=default;" vertex="1" parent="FJe9rlemv6NJPmRcLRrQ-78">
          <mxGeometry x="384" y="123" width="82" height="28" as="geometry" />
        </mxCell>
        <mxCell id="FJe9rlemv6NJPmRcLRrQ-334" style="edgeStyle=orthogonalEdgeStyle;rounded=0;orthogonalLoop=1;jettySize=auto;html=1;exitX=0.5;exitY=1;exitDx=0;exitDy=0;entryX=0.5;entryY=0;entryDx=0;entryDy=0;fontSize=9;startArrow=none;startFill=0;" edge="1" parent="FJe9rlemv6NJPmRcLRrQ-78" source="FJe9rlemv6NJPmRcLRrQ-86" target="FJe9rlemv6NJPmRcLRrQ-84">
          <mxGeometry relative="1" as="geometry" />
        </mxCell>
        <mxCell id="FJe9rlemv6NJPmRcLRrQ-86" value="Model" style="rounded=1;whiteSpace=wrap;html=1;fillColor=default;" vertex="1" parent="FJe9rlemv6NJPmRcLRrQ-78">
          <mxGeometry x="223" y="68" width="82" height="28" as="geometry" />
        </mxCell>
        <mxCell id="FJe9rlemv6NJPmRcLRrQ-87" value="" style="endArrow=none;dashed=1;html=1;dashPattern=1 3;strokeWidth=2;rounded=0;exitX=1;exitY=0.5;exitDx=0;exitDy=0;entryX=0.5;entryY=0;entryDx=0;entryDy=0;" edge="1" parent="FJe9rlemv6NJPmRcLRrQ-78" source="FJe9rlemv6NJPmRcLRrQ-82" target="FJe9rlemv6NJPmRcLRrQ-86">
          <mxGeometry width="50" height="50" relative="1" as="geometry">
            <mxPoint x="241" y="296" as="sourcePoint" />
            <mxPoint x="291" y="246" as="targetPoint" />
            <Array as="points">
              <mxPoint x="264" y="26" />
            </Array>
          </mxGeometry>
        </mxCell>
        <mxCell id="FJe9rlemv6NJPmRcLRrQ-88" value="" style="endArrow=none;dashed=1;html=1;dashPattern=1 3;strokeWidth=2;rounded=0;exitX=0.5;exitY=0;exitDx=0;exitDy=0;entryX=0.373;entryY=1.037;entryDx=0;entryDy=0;entryPerimeter=0;" edge="1" parent="FJe9rlemv6NJPmRcLRrQ-78" source="FJe9rlemv6NJPmRcLRrQ-83" target="FJe9rlemv6NJPmRcLRrQ-82">
          <mxGeometry width="50" height="50" relative="1" as="geometry">
            <mxPoint x="241" y="296" as="sourcePoint" />
            <mxPoint x="83" y="99" as="targetPoint" />
          </mxGeometry>
        </mxCell>
        <mxCell id="FJe9rlemv6NJPmRcLRrQ-89" value="" style="endArrow=classic;startArrow=classic;html=1;rounded=0;entryX=0;entryY=0.5;entryDx=0;entryDy=0;exitX=1;exitY=0.5;exitDx=0;exitDy=0;" edge="1" parent="FJe9rlemv6NJPmRcLRrQ-78" source="FJe9rlemv6NJPmRcLRrQ-81" target="FJe9rlemv6NJPmRcLRrQ-84">
          <mxGeometry width="50" height="50" relative="1" as="geometry">
            <mxPoint x="353" y="297" as="sourcePoint" />
            <mxPoint x="403" y="247" as="targetPoint" />
          </mxGeometry>
        </mxCell>
        <mxCell id="FJe9rlemv6NJPmRcLRrQ-90" value="" style="endArrow=classic;startArrow=classic;html=1;rounded=0;entryX=0;entryY=0.5;entryDx=0;entryDy=0;exitX=1;exitY=0.5;exitDx=0;exitDy=0;" edge="1" parent="FJe9rlemv6NJPmRcLRrQ-78" source="FJe9rlemv6NJPmRcLRrQ-84" target="FJe9rlemv6NJPmRcLRrQ-85">
          <mxGeometry width="50" height="50" relative="1" as="geometry">
            <mxPoint x="353" y="297" as="sourcePoint" />
            <mxPoint x="403" y="247" as="targetPoint" />
          </mxGeometry>
        </mxCell>
        <mxCell id="blbhUG7mqCCAgmnZta2w-23" style="edgeStyle=orthogonalEdgeStyle;rounded=0;orthogonalLoop=1;jettySize=auto;html=1;exitX=0.5;exitY=1;exitDx=0;exitDy=0;fontSize=9;startArrow=classic;startFill=1;endArrow=classic;endFill=1;" edge="1" parent="FJe9rlemv6NJPmRcLRrQ-78" source="FJe9rlemv6NJPmRcLRrQ-305" target="FJe9rlemv6NJPmRcLRrQ-307">
          <mxGeometry relative="1" as="geometry" />
        </mxCell>
        <mxCell id="FJe9rlemv6NJPmRcLRrQ-305" value="Reference Repository" style="rounded=1;whiteSpace=wrap;html=1;fillColor=default;" vertex="1" parent="FJe9rlemv6NJPmRcLRrQ-78">
          <mxGeometry x="384" y="179" width="82" height="28" as="geometry" />
        </mxCell>
        <mxCell id="FJe9rlemv6NJPmRcLRrQ-310" value="" style="endArrow=classic;startArrow=classic;html=1;rounded=0;exitX=0.5;exitY=0;exitDx=0;exitDy=0;" edge="1" parent="FJe9rlemv6NJPmRcLRrQ-78" source="FJe9rlemv6NJPmRcLRrQ-305" target="FJe9rlemv6NJPmRcLRrQ-85">
          <mxGeometry width="50" height="50" relative="1" as="geometry">
            <mxPoint x="212.5" y="211" as="sourcePoint" />
            <mxPoint x="224.03125" y="229" as="targetPoint" />
          </mxGeometry>
        </mxCell>
        <mxCell id="FJe9rlemv6NJPmRcLRrQ-307" value="Reference" style="rounded=1;whiteSpace=wrap;html=1;fillColor=default;" vertex="1" parent="FJe9rlemv6NJPmRcLRrQ-78">
          <mxGeometry x="384" y="229" width="82" height="28" as="geometry" />
        </mxCell>
        <mxCell id="blbhUG7mqCCAgmnZta2w-25" style="edgeStyle=orthogonalEdgeStyle;rounded=0;orthogonalLoop=1;jettySize=auto;html=1;exitX=0.5;exitY=0;exitDx=0;exitDy=0;entryX=0.5;entryY=1;entryDx=0;entryDy=0;fontSize=9;startArrow=classic;startFill=1;endArrow=classic;endFill=1;" edge="1" parent="FJe9rlemv6NJPmRcLRrQ-78" source="blbhUG7mqCCAgmnZta2w-24" target="FJe9rlemv6NJPmRcLRrQ-84">
          <mxGeometry relative="1" as="geometry" />
        </mxCell>
        <mxCell id="blbhUG7mqCCAgmnZta2w-24" value="AsyncProcess" style="rounded=1;whiteSpace=wrap;html=1;fillColor=default;" vertex="1" parent="FJe9rlemv6NJPmRcLRrQ-78">
          <mxGeometry x="223" y="219" width="82" height="28" as="geometry" />
        </mxCell>
        <mxCell id="L-RIdDMi9MvUVQ2PqStG-2" value="DTO externe" style="rounded=0;whiteSpace=wrap;html=1;" vertex="1" parent="FJe9rlemv6NJPmRcLRrQ-78">
          <mxGeometry x="400" width="88" height="42" as="geometry" />
        </mxCell>
        <mxCell id="FJe9rlemv6NJPmRcLRrQ-211" value="" style="shape=partialRectangle;connectable=0;fillColor=none;top=0;left=0;bottom=0;right=0;editable=1;overflow=hidden;" vertex="1" parent="FJe9rlemv6NJPmRcLRrQ-35">
          <mxGeometry x="661.5" y="515" width="30" height="35" as="geometry">
            <mxRectangle width="30" height="35" as="alternateBounds" />
          </mxGeometry>
        </mxCell>
        <mxCell id="FJe9rlemv6NJPmRcLRrQ-212" value="state" style="shape=partialRectangle;connectable=0;fillColor=none;top=0;left=0;bottom=0;right=0;align=left;spacingLeft=6;overflow=hidden;" vertex="1" parent="FJe9rlemv6NJPmRcLRrQ-35">
          <mxGeometry x="691.5" y="515" width="100" height="35" as="geometry">
            <mxRectangle width="100" height="35" as="alternateBounds" />
          </mxGeometry>
        </mxCell>
        <mxCell id="L-RIdDMi9MvUVQ2PqStG-4" value="DTO externe" style="rounded=0;whiteSpace=wrap;html=1;" vertex="1" parent="FJe9rlemv6NJPmRcLRrQ-35">
          <mxGeometry x="400" width="88" height="42" as="geometry" />
        </mxCell>
        <mxCell id="FJe9rlemv6NJPmRcLRrQ-123" value="" style="endArrow=classic;startArrow=classic;html=1;rounded=0;fontSize=11;exitX=1;exitY=0.25;exitDx=0;exitDy=0;entryX=0;entryY=0.5;entryDx=0;entryDy=0;" edge="1" parent="1" source="FJe9rlemv6NJPmRcLRrQ-2" target="FJe9rlemv6NJPmRcLRrQ-38">
          <mxGeometry width="50" height="50" relative="1" as="geometry">
            <mxPoint x="200" y="-579" as="sourcePoint" />
            <mxPoint x="250" y="-629" as="targetPoint" />
            <Array as="points">
              <mxPoint x="-250" y="-509" />
              <mxPoint x="-250" y="-609" />
            </Array>
          </mxGeometry>
        </mxCell>
        <mxCell id="FJe9rlemv6NJPmRcLRrQ-124" value="" style="endArrow=classic;startArrow=classic;html=1;rounded=0;fontSize=11;entryX=0;entryY=0.5;entryDx=0;entryDy=0;exitX=1.004;exitY=0.433;exitDx=0;exitDy=0;exitPerimeter=0;" edge="1" parent="1" source="FJe9rlemv6NJPmRcLRrQ-2" target="FJe9rlemv6NJPmRcLRrQ-46">
          <mxGeometry width="50" height="50" relative="1" as="geometry">
            <mxPoint x="10" y="-449" as="sourcePoint" />
            <mxPoint x="60" y="-499" as="targetPoint" />
            <Array as="points">
              <mxPoint x="-250" y="-487" />
              <mxPoint x="-250" y="-312" />
            </Array>
          </mxGeometry>
        </mxCell>
        <mxCell id="FJe9rlemv6NJPmRcLRrQ-125" value="" style="endArrow=classic;startArrow=classic;html=1;rounded=0;fontSize=11;entryX=0;entryY=0.5;entryDx=0;entryDy=0;entryPerimeter=0;exitX=1;exitY=0.5;exitDx=0;exitDy=0;" edge="1" parent="1" source="FJe9rlemv6NJPmRcLRrQ-13" target="FJe9rlemv6NJPmRcLRrQ-3">
          <mxGeometry width="50" height="50" relative="1" as="geometry">
            <mxPoint x="10" y="-589" as="sourcePoint" />
            <mxPoint x="60" y="-639" as="targetPoint" />
            <Array as="points">
              <mxPoint x="280" y="-899" />
              <mxPoint x="280" y="-952" />
            </Array>
          </mxGeometry>
        </mxCell>
        <mxCell id="FJe9rlemv6NJPmRcLRrQ-126" value="" style="rounded=0;whiteSpace=wrap;html=1;fillColor=default;" vertex="1" parent="1">
          <mxGeometry x="300" y="-209" width="528" height="264" as="geometry" />
        </mxCell>
        <mxCell id="FJe9rlemv6NJPmRcLRrQ-127" value="CardDB" style="rounded=0;whiteSpace=wrap;html=1;fillColor=#fff2cc;strokeColor=#d6b656;" vertex="1" parent="1">
          <mxGeometry x="300" y="-209" width="98" height="37" as="geometry" />
        </mxCell>
        <mxCell id="FJe9rlemv6NJPmRcLRrQ-128" value="" style="strokeWidth=2;html=1;shape=mxgraph.flowchart.database;whiteSpace=wrap;" vertex="1" parent="1">
          <mxGeometry x="340" y="-129" width="60" height="60" as="geometry" />
        </mxCell>
        <mxCell id="FJe9rlemv6NJPmRcLRrQ-129" value="" style="endArrow=classic;startArrow=classic;html=1;rounded=0;fontSize=11;entryX=0.994;entryY=0.611;entryDx=0;entryDy=0;exitX=0;exitY=0.5;exitDx=0;exitDy=0;entryPerimeter=0;" edge="1" parent="1" source="FJe9rlemv6NJPmRcLRrQ-81" target="FJe9rlemv6NJPmRcLRrQ-2">
          <mxGeometry width="50" height="50" relative="1" as="geometry">
            <mxPoint x="60" y="-239" as="sourcePoint" />
            <mxPoint x="110" y="-289" as="targetPoint" />
            <Array as="points">
              <mxPoint x="-280" y="-71" />
              <mxPoint x="-280" y="-466" />
            </Array>
          </mxGeometry>
        </mxCell>
        <mxCell id="FJe9rlemv6NJPmRcLRrQ-130" value="" style="endArrow=classic;startArrow=classic;html=1;rounded=0;fontSize=11;exitX=1;exitY=0.5;exitDx=0;exitDy=0;entryX=0;entryY=0.5;entryDx=0;entryDy=0;entryPerimeter=0;" edge="1" parent="1" source="FJe9rlemv6NJPmRcLRrQ-85" target="FJe9rlemv6NJPmRcLRrQ-128">
          <mxGeometry width="50" height="50" relative="1" as="geometry">
            <mxPoint x="60" y="-239" as="sourcePoint" />
            <mxPoint x="110" y="-289" as="targetPoint" />
            <Array as="points">
              <mxPoint x="280" y="-71" />
              <mxPoint x="280" y="-99" />
            </Array>
          </mxGeometry>
        </mxCell>
        <mxCell id="FJe9rlemv6NJPmRcLRrQ-131" value="Card" style="shape=table;startSize=30;container=1;collapsible=1;childLayout=tableLayout;fixedRows=1;rowLines=0;fontStyle=1;align=center;resizeLast=1;fillColor=default;" vertex="1" parent="1">
          <mxGeometry x="435" y="-199" width="135" height="240" as="geometry">
            <mxRectangle x="790" y="-225" width="70" height="30" as="alternateBounds" />
          </mxGeometry>
        </mxCell>
        <mxCell id="FJe9rlemv6NJPmRcLRrQ-132" value="" style="shape=tableRow;horizontal=0;startSize=0;swimlaneHead=0;swimlaneBody=0;fillColor=none;collapsible=0;dropTarget=0;points=[[0,0.5],[1,0.5]];portConstraint=eastwest;top=0;left=0;right=0;bottom=1;" vertex="1" parent="FJe9rlemv6NJPmRcLRrQ-131">
          <mxGeometry y="30" width="135" height="30" as="geometry" />
        </mxCell>
        <mxCell id="FJe9rlemv6NJPmRcLRrQ-133" value="PK" style="shape=partialRectangle;connectable=0;fillColor=none;top=0;left=0;bottom=0;right=0;fontStyle=1;overflow=hidden;" vertex="1" parent="FJe9rlemv6NJPmRcLRrQ-132">
          <mxGeometry width="30" height="30" as="geometry">
            <mxRectangle width="30" height="30" as="alternateBounds" />
          </mxGeometry>
        </mxCell>
        <mxCell id="FJe9rlemv6NJPmRcLRrQ-134" value="idCard" style="shape=partialRectangle;connectable=0;fillColor=none;top=0;left=0;bottom=0;right=0;align=left;spacingLeft=6;fontStyle=5;overflow=hidden;" vertex="1" parent="FJe9rlemv6NJPmRcLRrQ-132">
          <mxGeometry x="30" width="105" height="30" as="geometry">
            <mxRectangle width="105" height="30" as="alternateBounds" />
          </mxGeometry>
        </mxCell>
        <mxCell id="FJe9rlemv6NJPmRcLRrQ-135" value="" style="shape=tableRow;horizontal=0;startSize=0;swimlaneHead=0;swimlaneBody=0;fillColor=none;collapsible=0;dropTarget=0;points=[[0,0.5],[1,0.5]];portConstraint=eastwest;top=0;left=0;right=0;bottom=0;" vertex="1" parent="FJe9rlemv6NJPmRcLRrQ-131">
          <mxGeometry y="60" width="135" height="30" as="geometry" />
        </mxCell>
        <mxCell id="FJe9rlemv6NJPmRcLRrQ-136" value="" style="shape=partialRectangle;connectable=0;fillColor=none;top=0;left=0;bottom=0;right=0;editable=1;overflow=hidden;" vertex="1" parent="FJe9rlemv6NJPmRcLRrQ-135">
          <mxGeometry width="30" height="30" as="geometry">
            <mxRectangle width="30" height="30" as="alternateBounds" />
          </mxGeometry>
        </mxCell>
        <mxCell id="FJe9rlemv6NJPmRcLRrQ-137" value="energy" style="shape=partialRectangle;connectable=0;fillColor=none;top=0;left=0;bottom=0;right=0;align=left;spacingLeft=6;overflow=hidden;" vertex="1" parent="FJe9rlemv6NJPmRcLRrQ-135">
          <mxGeometry x="30" width="105" height="30" as="geometry">
            <mxRectangle width="105" height="30" as="alternateBounds" />
          </mxGeometry>
        </mxCell>
        <mxCell id="FJe9rlemv6NJPmRcLRrQ-138" value="" style="shape=tableRow;horizontal=0;startSize=0;swimlaneHead=0;swimlaneBody=0;fillColor=none;collapsible=0;dropTarget=0;points=[[0,0.5],[1,0.5]];portConstraint=eastwest;top=0;left=0;right=0;bottom=0;" vertex="1" parent="FJe9rlemv6NJPmRcLRrQ-131">
          <mxGeometry y="90" width="135" height="30" as="geometry" />
        </mxCell>
        <mxCell id="FJe9rlemv6NJPmRcLRrQ-139" value="" style="shape=partialRectangle;connectable=0;fillColor=none;top=0;left=0;bottom=0;right=0;editable=1;overflow=hidden;" vertex="1" parent="FJe9rlemv6NJPmRcLRrQ-138">
          <mxGeometry width="30" height="30" as="geometry">
            <mxRectangle width="30" height="30" as="alternateBounds" />
          </mxGeometry>
        </mxCell>
        <mxCell id="FJe9rlemv6NJPmRcLRrQ-140" value="hp" style="shape=partialRectangle;connectable=0;fillColor=none;top=0;left=0;bottom=0;right=0;align=left;spacingLeft=6;overflow=hidden;" vertex="1" parent="FJe9rlemv6NJPmRcLRrQ-138">
          <mxGeometry x="30" width="105" height="30" as="geometry">
            <mxRectangle width="105" height="30" as="alternateBounds" />
          </mxGeometry>
        </mxCell>
        <mxCell id="FJe9rlemv6NJPmRcLRrQ-141" value="" style="shape=tableRow;horizontal=0;startSize=0;swimlaneHead=0;swimlaneBody=0;fillColor=none;collapsible=0;dropTarget=0;points=[[0,0.5],[1,0.5]];portConstraint=eastwest;top=0;left=0;right=0;bottom=0;" vertex="1" parent="FJe9rlemv6NJPmRcLRrQ-131">
          <mxGeometry y="120" width="135" height="30" as="geometry" />
        </mxCell>
        <mxCell id="FJe9rlemv6NJPmRcLRrQ-142" value="" style="shape=partialRectangle;connectable=0;fillColor=none;top=0;left=0;bottom=0;right=0;editable=1;overflow=hidden;" vertex="1" parent="FJe9rlemv6NJPmRcLRrQ-141">
          <mxGeometry width="30" height="30" as="geometry">
            <mxRectangle width="30" height="30" as="alternateBounds" />
          </mxGeometry>
        </mxCell>
        <mxCell id="FJe9rlemv6NJPmRcLRrQ-143" value="defence" style="shape=partialRectangle;connectable=0;fillColor=none;top=0;left=0;bottom=0;right=0;align=left;spacingLeft=6;overflow=hidden;" vertex="1" parent="FJe9rlemv6NJPmRcLRrQ-141">
          <mxGeometry x="30" width="105" height="30" as="geometry">
            <mxRectangle width="105" height="30" as="alternateBounds" />
          </mxGeometry>
        </mxCell>
        <mxCell id="FJe9rlemv6NJPmRcLRrQ-144" value="" style="shape=tableRow;horizontal=0;startSize=0;swimlaneHead=0;swimlaneBody=0;fillColor=none;collapsible=0;dropTarget=0;points=[[0,0.5],[1,0.5]];portConstraint=eastwest;top=0;left=0;right=0;bottom=0;" vertex="1" parent="FJe9rlemv6NJPmRcLRrQ-131">
          <mxGeometry y="150" width="135" height="30" as="geometry" />
        </mxCell>
        <mxCell id="FJe9rlemv6NJPmRcLRrQ-145" value="" style="shape=partialRectangle;connectable=0;fillColor=none;top=0;left=0;bottom=0;right=0;editable=1;overflow=hidden;" vertex="1" parent="FJe9rlemv6NJPmRcLRrQ-144">
          <mxGeometry width="30" height="30" as="geometry">
            <mxRectangle width="30" height="30" as="alternateBounds" />
          </mxGeometry>
        </mxCell>
        <mxCell id="FJe9rlemv6NJPmRcLRrQ-146" value="attack" style="shape=partialRectangle;connectable=0;fillColor=none;top=0;left=0;bottom=0;right=0;align=left;spacingLeft=6;overflow=hidden;" vertex="1" parent="FJe9rlemv6NJPmRcLRrQ-144">
          <mxGeometry x="30" width="105" height="30" as="geometry">
            <mxRectangle width="105" height="30" as="alternateBounds" />
          </mxGeometry>
        </mxCell>
        <mxCell id="FJe9rlemv6NJPmRcLRrQ-147" value="" style="shape=tableRow;horizontal=0;startSize=0;swimlaneHead=0;swimlaneBody=0;fillColor=none;collapsible=0;dropTarget=0;points=[[0,0.5],[1,0.5]];portConstraint=eastwest;top=0;left=0;right=0;bottom=0;" vertex="1" parent="FJe9rlemv6NJPmRcLRrQ-131">
          <mxGeometry y="180" width="135" height="30" as="geometry" />
        </mxCell>
        <mxCell id="FJe9rlemv6NJPmRcLRrQ-148" value="" style="shape=partialRectangle;connectable=0;fillColor=none;top=0;left=0;bottom=0;right=0;editable=1;overflow=hidden;" vertex="1" parent="FJe9rlemv6NJPmRcLRrQ-147">
          <mxGeometry width="30" height="30" as="geometry">
            <mxRectangle width="30" height="30" as="alternateBounds" />
          </mxGeometry>
        </mxCell>
        <mxCell id="FJe9rlemv6NJPmRcLRrQ-149" value="price" style="shape=partialRectangle;connectable=0;fillColor=none;top=0;left=0;bottom=0;right=0;align=left;spacingLeft=6;overflow=hidden;" vertex="1" parent="FJe9rlemv6NJPmRcLRrQ-147">
          <mxGeometry x="30" width="105" height="30" as="geometry">
            <mxRectangle width="105" height="30" as="alternateBounds" />
          </mxGeometry>
        </mxCell>
        <mxCell id="FJe9rlemv6NJPmRcLRrQ-175" value="" style="points=[];aspect=fixed;html=1;align=center;shadow=0;dashed=0;image;image=img/lib/allied_telesis/computer_and_terminals/Personal_Computer.svg;fontSize=11;fillColor=default;" vertex="1" parent="1">
          <mxGeometry x="-760" y="-519.5" width="59.03" height="80" as="geometry" />
        </mxCell>
        <mxCell id="FJe9rlemv6NJPmRcLRrQ-176" value="" style="endArrow=classic;startArrow=classic;html=1;rounded=0;fontSize=11;entryX=0;entryY=0.5;entryDx=0;entryDy=0;" edge="1" parent="1" target="FJe9rlemv6NJPmRcLRrQ-2">
          <mxGeometry width="50" height="50" relative="1" as="geometry">
            <mxPoint x="-700" y="-478.99999999999955" as="sourcePoint" />
            <mxPoint x="-10" y="-469" as="targetPoint" />
          </mxGeometry>
        </mxCell>
        <mxCell id="FJe9rlemv6NJPmRcLRrQ-177" value="Views" style="rounded=1;whiteSpace=wrap;html=1;fontSize=11;fillColor=default;" vertex="1" parent="1">
          <mxGeometry x="-560" y="-349" width="120" height="60" as="geometry" />
        </mxCell>
        <mxCell id="FJe9rlemv6NJPmRcLRrQ-178" value="" style="endArrow=classic;startArrow=classic;html=1;rounded=0;fontSize=11;exitX=0.5;exitY=0;exitDx=0;exitDy=0;" edge="1" parent="1" source="FJe9rlemv6NJPmRcLRrQ-177">
          <mxGeometry width="50" height="50" relative="1" as="geometry">
            <mxPoint x="-540" y="-359" as="sourcePoint" />
            <mxPoint x="-500" y="-418.99999999999955" as="targetPoint" />
          </mxGeometry>
        </mxCell>
        <mxCell id="FJe9rlemv6NJPmRcLRrQ-202" value="" style="shape=partialRectangle;connectable=0;fillColor=none;top=0;left=0;bottom=0;right=0;editable=1;overflow=hidden;" vertex="1" parent="1">
          <mxGeometry x="420" y="-922" width="30" height="35" as="geometry">
            <mxRectangle width="30" height="35" as="alternateBounds" />
          </mxGeometry>
        </mxCell>
        <mxCell id="FJe9rlemv6NJPmRcLRrQ-203" value="lastName" style="shape=partialRectangle;connectable=0;fillColor=none;top=0;left=0;bottom=0;right=0;align=left;spacingLeft=6;overflow=hidden;" vertex="1" parent="1">
          <mxGeometry x="450" y="-922" width="100" height="35" as="geometry">
            <mxRectangle width="100" height="35" as="alternateBounds" />
          </mxGeometry>
        </mxCell>
        <mxCell id="FJe9rlemv6NJPmRcLRrQ-207" value="" style="shape=partialRectangle;connectable=0;fillColor=none;top=0;left=0;bottom=0;right=0;editable=1;overflow=hidden;" vertex="1" parent="1">
          <mxGeometry x="420" y="-889" width="30" height="35" as="geometry">
            <mxRectangle width="30" height="35" as="alternateBounds" />
          </mxGeometry>
        </mxCell>
        <mxCell id="FJe9rlemv6NJPmRcLRrQ-208" value="surName" style="shape=partialRectangle;connectable=0;fillColor=none;top=0;left=0;bottom=0;right=0;align=left;spacingLeft=6;overflow=hidden;" vertex="1" parent="1">
          <mxGeometry x="450" y="-889" width="100" height="35" as="geometry">
            <mxRectangle width="100" height="35" as="alternateBounds" />
          </mxGeometry>
        </mxCell>
        <mxCell id="FJe9rlemv6NJPmRcLRrQ-209" value="" style="shape=partialRectangle;connectable=0;fillColor=none;top=0;left=0;bottom=0;right=0;editable=1;overflow=hidden;" vertex="1" parent="1">
          <mxGeometry x="420" y="-864" width="30" height="35" as="geometry">
            <mxRectangle width="30" height="35" as="alternateBounds" />
          </mxGeometry>
        </mxCell>
        <mxCell id="FJe9rlemv6NJPmRcLRrQ-210" value="emailUser" style="shape=partialRectangle;connectable=0;fillColor=none;top=0;left=0;bottom=0;right=0;align=left;spacingLeft=6;overflow=hidden;" vertex="1" parent="1">
          <mxGeometry x="450" y="-864" width="100" height="35" as="geometry">
            <mxRectangle width="100" height="35" as="alternateBounds" />
          </mxGeometry>
        </mxCell>
        <mxCell id="FJe9rlemv6NJPmRcLRrQ-282" value="Reference" style="shape=table;startSize=30;container=1;collapsible=1;childLayout=tableLayout;fixedRows=1;rowLines=0;fontStyle=1;align=center;resizeLast=1;fillColor=default;" vertex="1" parent="1">
          <mxGeometry x="600" y="-199" width="130" height="240" as="geometry">
            <mxRectangle x="790" y="-225" width="70" height="30" as="alternateBounds" />
          </mxGeometry>
        </mxCell>
        <mxCell id="FJe9rlemv6NJPmRcLRrQ-283" value="" style="shape=tableRow;horizontal=0;startSize=0;swimlaneHead=0;swimlaneBody=0;fillColor=none;collapsible=0;dropTarget=0;points=[[0,0.5],[1,0.5]];portConstraint=eastwest;top=0;left=0;right=0;bottom=1;" vertex="1" parent="FJe9rlemv6NJPmRcLRrQ-282">
          <mxGeometry y="30" width="130" height="30" as="geometry" />
        </mxCell>
        <mxCell id="FJe9rlemv6NJPmRcLRrQ-284" value="PK" style="shape=partialRectangle;connectable=0;fillColor=none;top=0;left=0;bottom=0;right=0;fontStyle=1;overflow=hidden;" vertex="1" parent="FJe9rlemv6NJPmRcLRrQ-283">
          <mxGeometry width="30" height="30" as="geometry">
            <mxRectangle width="30" height="30" as="alternateBounds" />
          </mxGeometry>
        </mxCell>
        <mxCell id="FJe9rlemv6NJPmRcLRrQ-285" value="idReference" style="shape=partialRectangle;connectable=0;fillColor=none;top=0;left=0;bottom=0;right=0;align=left;spacingLeft=6;fontStyle=5;overflow=hidden;" vertex="1" parent="FJe9rlemv6NJPmRcLRrQ-283">
          <mxGeometry x="30" width="100" height="30" as="geometry">
            <mxRectangle width="100" height="30" as="alternateBounds" />
          </mxGeometry>
        </mxCell>
        <mxCell id="FJe9rlemv6NJPmRcLRrQ-286" value="" style="shape=tableRow;horizontal=0;startSize=0;swimlaneHead=0;swimlaneBody=0;fillColor=none;collapsible=0;dropTarget=0;points=[[0,0.5],[1,0.5]];portConstraint=eastwest;top=0;left=0;right=0;bottom=0;" vertex="1" parent="FJe9rlemv6NJPmRcLRrQ-282">
          <mxGeometry y="60" width="130" height="30" as="geometry" />
        </mxCell>
        <mxCell id="FJe9rlemv6NJPmRcLRrQ-287" value="" style="shape=partialRectangle;connectable=0;fillColor=none;top=0;left=0;bottom=0;right=0;editable=1;overflow=hidden;" vertex="1" parent="FJe9rlemv6NJPmRcLRrQ-286">
          <mxGeometry width="30" height="30" as="geometry">
            <mxRectangle width="30" height="30" as="alternateBounds" />
          </mxGeometry>
        </mxCell>
        <mxCell id="FJe9rlemv6NJPmRcLRrQ-288" value="name" style="shape=partialRectangle;connectable=0;fillColor=none;top=0;left=0;bottom=0;right=0;align=left;spacingLeft=6;overflow=hidden;" vertex="1" parent="FJe9rlemv6NJPmRcLRrQ-286">
          <mxGeometry x="30" width="100" height="30" as="geometry">
            <mxRectangle width="100" height="30" as="alternateBounds" />
          </mxGeometry>
        </mxCell>
        <mxCell id="FJe9rlemv6NJPmRcLRrQ-289" value="" style="shape=tableRow;horizontal=0;startSize=0;swimlaneHead=0;swimlaneBody=0;fillColor=none;collapsible=0;dropTarget=0;points=[[0,0.5],[1,0.5]];portConstraint=eastwest;top=0;left=0;right=0;bottom=0;" vertex="1" parent="FJe9rlemv6NJPmRcLRrQ-282">
          <mxGeometry y="90" width="130" height="30" as="geometry" />
        </mxCell>
        <mxCell id="FJe9rlemv6NJPmRcLRrQ-290" value="" style="shape=partialRectangle;connectable=0;fillColor=none;top=0;left=0;bottom=0;right=0;editable=1;overflow=hidden;" vertex="1" parent="FJe9rlemv6NJPmRcLRrQ-289">
          <mxGeometry width="30" height="30" as="geometry">
            <mxRectangle width="30" height="30" as="alternateBounds" />
          </mxGeometry>
        </mxCell>
        <mxCell id="FJe9rlemv6NJPmRcLRrQ-291" value="description" style="shape=partialRectangle;connectable=0;fillColor=none;top=0;left=0;bottom=0;right=0;align=left;spacingLeft=6;overflow=hidden;" vertex="1" parent="FJe9rlemv6NJPmRcLRrQ-289">
          <mxGeometry x="30" width="100" height="30" as="geometry">
            <mxRectangle width="100" height="30" as="alternateBounds" />
          </mxGeometry>
        </mxCell>
        <mxCell id="FJe9rlemv6NJPmRcLRrQ-292" value="" style="shape=tableRow;horizontal=0;startSize=0;swimlaneHead=0;swimlaneBody=0;fillColor=none;collapsible=0;dropTarget=0;points=[[0,0.5],[1,0.5]];portConstraint=eastwest;top=0;left=0;right=0;bottom=0;" vertex="1" parent="FJe9rlemv6NJPmRcLRrQ-282">
          <mxGeometry y="120" width="130" height="30" as="geometry" />
        </mxCell>
        <mxCell id="FJe9rlemv6NJPmRcLRrQ-293" value="" style="shape=partialRectangle;connectable=0;fillColor=none;top=0;left=0;bottom=0;right=0;editable=1;overflow=hidden;" vertex="1" parent="FJe9rlemv6NJPmRcLRrQ-292">
          <mxGeometry width="30" height="30" as="geometry">
            <mxRectangle width="30" height="30" as="alternateBounds" />
          </mxGeometry>
        </mxCell>
        <mxCell id="FJe9rlemv6NJPmRcLRrQ-294" value="family" style="shape=partialRectangle;connectable=0;fillColor=none;top=0;left=0;bottom=0;right=0;align=left;spacingLeft=6;overflow=hidden;" vertex="1" parent="FJe9rlemv6NJPmRcLRrQ-292">
          <mxGeometry x="30" width="100" height="30" as="geometry">
            <mxRectangle width="100" height="30" as="alternateBounds" />
          </mxGeometry>
        </mxCell>
        <mxCell id="FJe9rlemv6NJPmRcLRrQ-295" value="" style="shape=tableRow;horizontal=0;startSize=0;swimlaneHead=0;swimlaneBody=0;fillColor=none;collapsible=0;dropTarget=0;points=[[0,0.5],[1,0.5]];portConstraint=eastwest;top=0;left=0;right=0;bottom=0;" vertex="1" parent="FJe9rlemv6NJPmRcLRrQ-282">
          <mxGeometry y="150" width="130" height="30" as="geometry" />
        </mxCell>
        <mxCell id="FJe9rlemv6NJPmRcLRrQ-296" value="" style="shape=partialRectangle;connectable=0;fillColor=none;top=0;left=0;bottom=0;right=0;editable=1;overflow=hidden;" vertex="1" parent="FJe9rlemv6NJPmRcLRrQ-295">
          <mxGeometry width="30" height="30" as="geometry">
            <mxRectangle width="30" height="30" as="alternateBounds" />
          </mxGeometry>
        </mxCell>
        <mxCell id="FJe9rlemv6NJPmRcLRrQ-297" value="affinity" style="shape=partialRectangle;connectable=0;fillColor=none;top=0;left=0;bottom=0;right=0;align=left;spacingLeft=6;overflow=hidden;" vertex="1" parent="FJe9rlemv6NJPmRcLRrQ-295">
          <mxGeometry x="30" width="100" height="30" as="geometry">
            <mxRectangle width="100" height="30" as="alternateBounds" />
          </mxGeometry>
        </mxCell>
        <mxCell id="FJe9rlemv6NJPmRcLRrQ-298" value="" style="shape=tableRow;horizontal=0;startSize=0;swimlaneHead=0;swimlaneBody=0;fillColor=none;collapsible=0;dropTarget=0;points=[[0,0.5],[1,0.5]];portConstraint=eastwest;top=0;left=0;right=0;bottom=0;" vertex="1" parent="FJe9rlemv6NJPmRcLRrQ-282">
          <mxGeometry y="180" width="130" height="30" as="geometry" />
        </mxCell>
        <mxCell id="FJe9rlemv6NJPmRcLRrQ-299" value="" style="shape=partialRectangle;connectable=0;fillColor=none;top=0;left=0;bottom=0;right=0;editable=1;overflow=hidden;" vertex="1" parent="FJe9rlemv6NJPmRcLRrQ-298">
          <mxGeometry width="30" height="30" as="geometry">
            <mxRectangle width="30" height="30" as="alternateBounds" />
          </mxGeometry>
        </mxCell>
        <mxCell id="FJe9rlemv6NJPmRcLRrQ-300" value="imgUrl" style="shape=partialRectangle;connectable=0;fillColor=none;top=0;left=0;bottom=0;right=0;align=left;spacingLeft=6;overflow=hidden;" vertex="1" parent="FJe9rlemv6NJPmRcLRrQ-298">
          <mxGeometry x="30" width="100" height="30" as="geometry">
            <mxRectangle width="100" height="30" as="alternateBounds" />
          </mxGeometry>
        </mxCell>
        <mxCell id="FJe9rlemv6NJPmRcLRrQ-301" value="" style="shape=partialRectangle;connectable=0;fillColor=none;top=0;left=0;bottom=0;right=0;editable=1;overflow=hidden;" vertex="1" parent="1">
          <mxGeometry x="435" y="13" width="30" height="30" as="geometry">
            <mxRectangle width="30" height="30" as="alternateBounds" />
          </mxGeometry>
        </mxCell>
        <mxCell id="FJe9rlemv6NJPmRcLRrQ-302" value="idReference" style="shape=partialRectangle;connectable=0;fillColor=none;top=0;left=0;bottom=0;right=0;align=left;spacingLeft=6;overflow=hidden;" vertex="1" parent="1">
          <mxGeometry x="465" y="13" width="105" height="28" as="geometry">
            <mxRectangle width="105" height="30" as="alternateBounds" />
          </mxGeometry>
        </mxCell>
        <mxCell id="FJe9rlemv6NJPmRcLRrQ-303" value="" style="shape=partialRectangle;connectable=0;fillColor=none;top=0;left=0;bottom=0;right=0;editable=1;overflow=hidden;" vertex="1" parent="1">
          <mxGeometry x="600" y="11" width="30" height="30" as="geometry">
            <mxRectangle width="30" height="30" as="alternateBounds" />
          </mxGeometry>
        </mxCell>
        <mxCell id="FJe9rlemv6NJPmRcLRrQ-304" value="smallImgUrl" style="shape=partialRectangle;connectable=0;fillColor=none;top=0;left=0;bottom=0;right=0;align=left;spacingLeft=6;overflow=hidden;" vertex="1" parent="1">
          <mxGeometry x="630" y="11" width="100" height="30" as="geometry">
            <mxRectangle width="100" height="30" as="alternateBounds" />
          </mxGeometry>
        </mxCell>
        <mxCell id="FJe9rlemv6NJPmRcLRrQ-342" value="" style="rounded=0;whiteSpace=wrap;html=1;fontSize=9;" vertex="1" parent="1">
          <mxGeometry x="871" y="-1089" width="206" height="1430" as="geometry" />
        </mxCell>
        <mxCell id="blbhUG7mqCCAgmnZta2w-4" value="" style="rounded=0;whiteSpace=wrap;html=1;fontSize=9;fillColor=#d5e8d4;strokeColor=#82b366;" vertex="1" parent="1">
          <mxGeometry x="897" y="101" width="30" height="220" as="geometry" />
        </mxCell>
        <mxCell id="blbhUG7mqCCAgmnZta2w-5" value="" style="rounded=0;whiteSpace=wrap;html=1;fontSize=9;fillColor=#fff2cc;strokeColor=#d6b656;" vertex="1" parent="1">
          <mxGeometry x="937" y="-209" width="30" height="530" as="geometry" />
        </mxCell>
        <mxCell id="blbhUG7mqCCAgmnZta2w-6" value="" style="rounded=0;whiteSpace=wrap;html=1;fontSize=9;fillColor=#f8cecc;strokeColor=#b85450;" vertex="1" parent="1">
          <mxGeometry x="977" y="-499" width="30" height="820" as="geometry" />
        </mxCell>
        <mxCell id="blbhUG7mqCCAgmnZta2w-7" value="" style="rounded=0;whiteSpace=wrap;html=1;fontSize=9;fillColor=#dae8fc;strokeColor=#6c8ebf;" vertex="1" parent="1">
          <mxGeometry x="1017" y="-1079" width="30" height="1400" as="geometry" />
        </mxCell>
        <mxCell id="blbhUG7mqCCAgmnZta2w-9" value="NotificationService" style="rounded=0;whiteSpace=wrap;html=1;fillColor=#d5e8d4;strokeColor=#82b366;" vertex="1" parent="1">
          <mxGeometry x="-223" y="81" width="113" height="42" as="geometry" />
        </mxCell>
        <mxCell id="blbhUG7mqCCAgmnZta2w-17" style="edgeStyle=orthogonalEdgeStyle;rounded=0;orthogonalLoop=1;jettySize=auto;html=1;exitX=1;exitY=0.5;exitDx=0;exitDy=0;entryX=0;entryY=0.5;entryDx=0;entryDy=0;fontSize=9;startArrow=classic;startFill=1;endArrow=classic;endFill=1;" edge="1" parent="1" source="blbhUG7mqCCAgmnZta2w-10" target="blbhUG7mqCCAgmnZta2w-12">
          <mxGeometry relative="1" as="geometry" />
        </mxCell>
        <mxCell id="blbhUG7mqCCAgmnZta2w-10" value="Controller" style="rounded=1;whiteSpace=wrap;html=1;fillColor=default;" vertex="1" parent="1">
          <mxGeometry x="-177" y="236" width="82" height="28" as="geometry" />
        </mxCell>
        <mxCell id="blbhUG7mqCCAgmnZta2w-16" style="edgeStyle=orthogonalEdgeStyle;rounded=0;orthogonalLoop=1;jettySize=auto;html=1;exitX=0.5;exitY=1;exitDx=0;exitDy=0;entryX=0.5;entryY=0;entryDx=0;entryDy=0;fontSize=9;startArrow=classic;startFill=1;endArrow=classic;endFill=1;" edge="1" parent="1" source="blbhUG7mqCCAgmnZta2w-11" target="blbhUG7mqCCAgmnZta2w-10">
          <mxGeometry relative="1" as="geometry" />
        </mxCell>
        <mxCell id="blbhUG7mqCCAgmnZta2w-11" value="DTO" style="rounded=1;whiteSpace=wrap;html=1;fillColor=default;" vertex="1" parent="1">
          <mxGeometry x="-177" y="181" width="82" height="28" as="geometry" />
        </mxCell>
        <mxCell id="blbhUG7mqCCAgmnZta2w-19" style="edgeStyle=orthogonalEdgeStyle;rounded=0;orthogonalLoop=1;jettySize=auto;html=1;exitX=1;exitY=0.5;exitDx=0;exitDy=0;entryX=0;entryY=0.5;entryDx=0;entryDy=0;fontSize=9;startArrow=classic;startFill=1;endArrow=classic;endFill=1;" edge="1" parent="1" source="blbhUG7mqCCAgmnZta2w-12" target="blbhUG7mqCCAgmnZta2w-18">
          <mxGeometry relative="1" as="geometry" />
        </mxCell>
        <mxCell id="blbhUG7mqCCAgmnZta2w-12" value="Service" style="rounded=1;whiteSpace=wrap;html=1;fillColor=default;" vertex="1" parent="1">
          <mxGeometry x="-38" y="236" width="82" height="28" as="geometry" />
        </mxCell>
        <mxCell id="blbhUG7mqCCAgmnZta2w-20" style="edgeStyle=orthogonalEdgeStyle;rounded=0;orthogonalLoop=1;jettySize=auto;html=1;exitX=1;exitY=0.5;exitDx=0;exitDy=0;fontSize=9;startArrow=classic;startFill=1;endArrow=classic;endFill=1;entryX=0.061;entryY=0.677;entryDx=0;entryDy=0;entryPerimeter=0;" edge="1" parent="1" source="blbhUG7mqCCAgmnZta2w-18" target="blbhUG7mqCCAgmnZta2w-4">
          <mxGeometry relative="1" as="geometry" />
        </mxCell>
        <mxCell id="blbhUG7mqCCAgmnZta2w-18" value="AsyncProcess" style="rounded=1;whiteSpace=wrap;html=1;fillColor=default;" vertex="1" parent="1">
          <mxGeometry x="80" y="236" width="82" height="28" as="geometry" />
        </mxCell>
        <mxCell id="blbhUG7mqCCAgmnZta2w-27" style="edgeStyle=orthogonalEdgeStyle;rounded=0;orthogonalLoop=1;jettySize=auto;html=1;exitX=0.5;exitY=1;exitDx=0;exitDy=0;entryX=-0.007;entryY=0.527;entryDx=0;entryDy=0;fontSize=9;startArrow=classic;startFill=1;endArrow=classic;endFill=1;entryPerimeter=0;" edge="1" parent="1" source="blbhUG7mqCCAgmnZta2w-24" target="blbhUG7mqCCAgmnZta2w-5">
          <mxGeometry relative="1" as="geometry">
            <Array as="points">
              <mxPoint x="41" y="71" />
              <mxPoint x="937" y="71" />
            </Array>
          </mxGeometry>
        </mxCell>
        <mxCell id="blbhUG7mqCCAgmnZta2w-30" style="edgeStyle=orthogonalEdgeStyle;rounded=0;orthogonalLoop=1;jettySize=auto;html=1;exitX=0.5;exitY=0;exitDx=0;exitDy=0;entryX=0.5;entryY=0;entryDx=0;entryDy=0;fontSize=9;startArrow=classic;startFill=1;endArrow=classic;endFill=1;" edge="1" parent="1" source="blbhUG7mqCCAgmnZta2w-28" target="blbhUG7mqCCAgmnZta2w-6">
          <mxGeometry relative="1" as="geometry">
            <Array as="points">
              <mxPoint x="152" y="-519" />
              <mxPoint x="992" y="-519" />
            </Array>
          </mxGeometry>
        </mxCell>
        <mxCell id="blbhUG7mqCCAgmnZta2w-33" style="edgeStyle=orthogonalEdgeStyle;rounded=0;orthogonalLoop=1;jettySize=auto;html=1;exitX=0.5;exitY=1;exitDx=0;exitDy=0;entryX=-0.012;entryY=0.193;entryDx=0;entryDy=0;entryPerimeter=0;fontSize=9;startArrow=classic;startFill=1;endArrow=classic;endFill=1;" edge="1" parent="1" source="blbhUG7mqCCAgmnZta2w-31" target="blbhUG7mqCCAgmnZta2w-7">
          <mxGeometry relative="1" as="geometry">
            <Array as="points">
              <mxPoint y="-809" />
              <mxPoint x="1017" y="-809" />
            </Array>
          </mxGeometry>
        </mxCell>
        <mxCell id="blbhUG7mqCCAgmnZta2w-34" value="ESB" style="rounded=0;whiteSpace=wrap;html=1;fillColor=#f5f5f5;strokeColor=#666666;fontColor=#333333;" vertex="1" parent="1">
          <mxGeometry x="871" y="-1089" width="98" height="37" as="geometry" />
        </mxCell>
        <mxCell id="L-RIdDMi9MvUVQ2PqStG-1" value="DTO externe" style="rounded=0;whiteSpace=wrap;html=1;" vertex="1" parent="1">
          <mxGeometry x="152" y="81" width="113" height="42" as="geometry" />
        </mxCell>
      </root>
    </mxGraphModel>
  </diagram>
</mxfile>
